<mxfile host="Electron" agent="Mozilla/5.0 (Windows NT 10.0; Win64; x64) AppleWebKit/537.36 (KHTML, like Gecko) draw.io/25.0.2 Chrome/128.0.6613.186 Electron/32.2.5 Safari/537.36" version="25.0.2">
  <diagram id="C5RBs43oDa-KdzZeNtuy" name="Page-1">
    <mxGraphModel dx="3980" dy="5051" grid="1" gridSize="10" guides="1" tooltips="1" connect="1" arrows="1" fold="1" page="1" pageScale="1" pageWidth="827" pageHeight="1169" math="0" shadow="0">
      <root>
        <mxCell id="WIyWlLk6GJQsqaUBKTNV-0" />
        <mxCell id="WIyWlLk6GJQsqaUBKTNV-1" parent="WIyWlLk6GJQsqaUBKTNV-0" />
        <mxCell id="1QPHesBKEYhvxCualvM5-233" style="edgeStyle=orthogonalEdgeStyle;rounded=0;orthogonalLoop=1;jettySize=auto;html=1;endArrow=open;endFill=0;endSize=22;dashed=1;dashPattern=12 12;" edge="1" parent="WIyWlLk6GJQsqaUBKTNV-1" source="1QPHesBKEYhvxCualvM5-1" target="1QPHesBKEYhvxCualvM5-15">
          <mxGeometry relative="1" as="geometry" />
        </mxCell>
        <mxCell id="1QPHesBKEYhvxCualvM5-277" style="edgeStyle=orthogonalEdgeStyle;rounded=0;orthogonalLoop=1;jettySize=auto;html=1;endArrow=open;endFill=0;dashed=1;dashPattern=12 12;endSize=22;" edge="1" parent="WIyWlLk6GJQsqaUBKTNV-1" source="1QPHesBKEYhvxCualvM5-1" target="1QPHesBKEYhvxCualvM5-10">
          <mxGeometry relative="1" as="geometry">
            <Array as="points">
              <mxPoint x="2680" y="1490" />
              <mxPoint x="2680" y="1490" />
            </Array>
          </mxGeometry>
        </mxCell>
        <mxCell id="1QPHesBKEYhvxCualvM5-1" value="&lt;b&gt;SimpleTCPServer&lt;/b&gt;" style="swimlane;fontStyle=1;align=center;verticalAlign=top;childLayout=stackLayout;horizontal=1;startSize=26;horizontalStack=0;resizeParent=1;resizeParentMax=0;resizeLast=0;collapsible=1;marginBottom=0;whiteSpace=wrap;html=1;" vertex="1" parent="WIyWlLk6GJQsqaUBKTNV-1">
          <mxGeometry x="2510" y="1230" width="340" height="220" as="geometry" />
        </mxCell>
        <mxCell id="1QPHesBKEYhvxCualvM5-2" value="&lt;p style=&quot;margin: 0px 0px 0px 4px;&quot;&gt;- _client : TcpClient&lt;/p&gt;&lt;p style=&quot;margin: 0px 0px 0px 4px;&quot;&gt;- _stream : NetworkStream&lt;/p&gt;&lt;p style=&quot;margin: 0px 0px 0px 4px;&quot;&gt;- _receiveThread : Thread&lt;/p&gt;&lt;p style=&quot;margin: 0px 0px 0px 4px;&quot;&gt;- _isConnected : bool&lt;/p&gt;&lt;p style=&quot;margin: 0px 0px 0px 4px;&quot;&gt;- _instance : SimpleTCPClient&lt;/p&gt;&lt;p style=&quot;margin: 0px 0px 0px 4px;&quot;&gt;+ Instance : SimpleTCPClient&lt;/p&gt;" style="text;strokeColor=none;fillColor=none;align=left;verticalAlign=top;spacingLeft=4;spacingRight=4;overflow=hidden;rotatable=0;points=[[0,0.5],[1,0.5]];portConstraint=eastwest;whiteSpace=wrap;html=1;" vertex="1" parent="1QPHesBKEYhvxCualvM5-1">
          <mxGeometry y="26" width="340" height="94" as="geometry" />
        </mxCell>
        <mxCell id="1QPHesBKEYhvxCualvM5-3" value="" style="line;strokeWidth=1;fillColor=none;align=left;verticalAlign=middle;spacingTop=-1;spacingLeft=3;spacingRight=3;rotatable=0;labelPosition=right;points=[];portConstraint=eastwest;strokeColor=inherit;" vertex="1" parent="1QPHesBKEYhvxCualvM5-1">
          <mxGeometry y="120" width="340" height="8" as="geometry" />
        </mxCell>
        <mxCell id="1QPHesBKEYhvxCualvM5-4" value="&lt;p style=&quot;margin: 0px 0px 0px 4px;&quot;&gt;- Start() : void&lt;/p&gt;&lt;p style=&quot;margin: 0px 0px 0px 4px;&quot;&gt;- ConnectToServer(serverIP :&amp;nbsp;&lt;span style=&quot;background-color: initial;&quot;&gt;string&lt;/span&gt;&lt;span style=&quot;background-color: initial;&quot;&gt;, serverPort :&amp;nbsp;&lt;/span&gt;&lt;span style=&quot;background-color: initial;&quot;&gt;int&lt;/span&gt;&lt;span style=&quot;background-color: initial;&quot;&gt;) : void&lt;/span&gt;&lt;/p&gt;&lt;p style=&quot;margin: 0px 0px 0px 4px;&quot;&gt;- Disconnect() : void&lt;/p&gt;&lt;p style=&quot;margin: 0px 0px 0px 4px;&quot;&gt;+ SendQuery(string query) : void&lt;/p&gt;&lt;p style=&quot;margin: 0px 0px 0px 4px;&quot;&gt;- ReceiveData() : void&lt;/p&gt;" style="text;strokeColor=none;fillColor=none;align=left;verticalAlign=top;spacingLeft=4;spacingRight=4;overflow=hidden;rotatable=0;points=[[0,0.5],[1,0.5]];portConstraint=eastwest;whiteSpace=wrap;html=1;" vertex="1" parent="1QPHesBKEYhvxCualvM5-1">
          <mxGeometry y="128" width="340" height="92" as="geometry" />
        </mxCell>
        <mxCell id="1QPHesBKEYhvxCualvM5-5" value="UserSessionService" style="swimlane;fontStyle=1;align=center;verticalAlign=top;childLayout=stackLayout;horizontal=1;startSize=26;horizontalStack=0;resizeParent=1;resizeParentMax=0;resizeLast=0;collapsible=1;marginBottom=0;whiteSpace=wrap;html=1;" vertex="1" parent="WIyWlLk6GJQsqaUBKTNV-1">
          <mxGeometry x="2875" y="1420" width="230" height="110" as="geometry" />
        </mxCell>
        <mxCell id="1QPHesBKEYhvxCualvM5-6" value="&lt;p style=&quot;margin: 0px 0px 0px 4px;&quot;&gt;- _account : Account&lt;/p&gt;&lt;p style=&quot;margin: 0px 0px 0px 4px;&quot;&gt;- UserAccount : Account&lt;/p&gt;" style="text;strokeColor=none;fillColor=none;align=left;verticalAlign=top;spacingLeft=4;spacingRight=4;overflow=hidden;rotatable=0;points=[[0,0.5],[1,0.5]];portConstraint=eastwest;whiteSpace=wrap;html=1;" vertex="1" parent="1QPHesBKEYhvxCualvM5-5">
          <mxGeometry y="26" width="230" height="34" as="geometry" />
        </mxCell>
        <mxCell id="1QPHesBKEYhvxCualvM5-7" value="" style="line;strokeWidth=1;fillColor=none;align=left;verticalAlign=middle;spacingTop=-1;spacingLeft=3;spacingRight=3;rotatable=0;labelPosition=right;points=[];portConstraint=eastwest;strokeColor=inherit;" vertex="1" parent="1QPHesBKEYhvxCualvM5-5">
          <mxGeometry y="60" width="230" height="8" as="geometry" />
        </mxCell>
        <mxCell id="1QPHesBKEYhvxCualvM5-8" value="&lt;p style=&quot;margin: 0px 0px 0px 4px;&quot;&gt;- SetAccount(account :&amp;nbsp;&lt;span style=&quot;background-color: initial;&quot;&gt;Account&lt;/span&gt;&lt;span style=&quot;background-color: initial;&quot;&gt;) : void&lt;/span&gt;&lt;/p&gt;&lt;p style=&quot;margin: 0px 0px 0px 4px;&quot;&gt;- isAdmin() : bool&lt;/p&gt;" style="text;strokeColor=none;fillColor=none;align=left;verticalAlign=top;spacingLeft=4;spacingRight=4;overflow=hidden;rotatable=0;points=[[0,0.5],[1,0.5]];portConstraint=eastwest;whiteSpace=wrap;html=1;" vertex="1" parent="1QPHesBKEYhvxCualvM5-5">
          <mxGeometry y="68" width="230" height="42" as="geometry" />
        </mxCell>
        <mxCell id="1QPHesBKEYhvxCualvM5-10" value="&lt;b&gt;DataParsingExtension&lt;/b&gt;" style="swimlane;fontStyle=1;align=center;verticalAlign=top;childLayout=stackLayout;horizontal=1;startSize=26;horizontalStack=0;resizeParent=1;resizeParentMax=0;resizeLast=0;collapsible=1;marginBottom=0;whiteSpace=wrap;html=1;" vertex="1" parent="WIyWlLk6GJQsqaUBKTNV-1">
          <mxGeometry x="2510" y="1520" width="340" height="320" as="geometry" />
        </mxCell>
        <mxCell id="1QPHesBKEYhvxCualvM5-11" value="&lt;p style=&quot;margin: 0px 0px 0px 4px;&quot;&gt;+ ValueSplitter :&amp;nbsp;&lt;span style=&quot;background-color: initial;&quot;&gt;static&lt;/span&gt;&lt;span style=&quot;background-color: initial;&quot;&gt;&amp;nbsp;&lt;/span&gt;&lt;span style=&quot;background-color: initial;&quot;&gt;char&lt;/span&gt;&lt;/p&gt;&lt;p style=&quot;margin: 0px 0px 0px 4px;&quot;&gt;+ QuerySplitter :&amp;nbsp;&lt;span style=&quot;background-color: initial;&quot;&gt;static&lt;/span&gt;&lt;span style=&quot;background-color: initial;&quot;&gt;&amp;nbsp;&lt;/span&gt;&lt;span style=&quot;background-color: initial;&quot;&gt;char&lt;/span&gt;&lt;/p&gt;&lt;p style=&quot;margin: 0px 0px 0px 4px;&quot;&gt;+ AdditionalQuerySplitter :&amp;nbsp;&lt;span style=&quot;background-color: initial;&quot;&gt;static&lt;/span&gt;&lt;span style=&quot;background-color: initial;&quot;&gt;&amp;nbsp;&lt;/span&gt;&lt;span style=&quot;background-color: initial;&quot;&gt;char&lt;/span&gt;&lt;/p&gt;&lt;p style=&quot;margin: 0px 0px 0px 4px;&quot;&gt;+ ATableName :&amp;nbsp;&lt;span style=&quot;background-color: initial;&quot;&gt;static&lt;/span&gt;&lt;span style=&quot;background-color: initial;&quot;&gt;&amp;nbsp;&lt;/span&gt;&lt;span style=&quot;background-color: initial;&quot;&gt;string&lt;/span&gt;&lt;/p&gt;&lt;p style=&quot;margin: 0px 0px 0px 4px;&quot;&gt;+ AKTableName :&amp;nbsp;&lt;span style=&quot;background-color: initial;&quot;&gt;static&lt;/span&gt;&lt;span style=&quot;background-color: initial;&quot;&gt;&amp;nbsp;string&lt;/span&gt;&lt;/p&gt;&lt;p style=&quot;margin: 0px 0px 0px 4px;&quot;&gt;+ GATableName :&amp;nbsp;&lt;span style=&quot;background-color: initial;&quot;&gt;static&lt;/span&gt;&lt;span style=&quot;background-color: initial;&quot;&gt;&amp;nbsp;&lt;/span&gt;&lt;span style=&quot;background-color: initial;&quot;&gt;string&lt;/span&gt;&lt;/p&gt;&lt;p style=&quot;margin: 0px 0px 0px 4px;&quot;&gt;+ PMTableName :&amp;nbsp;&lt;span style=&quot;background-color: initial;&quot;&gt;static&lt;/span&gt;&lt;span style=&quot;background-color: initial;&quot;&gt;&amp;nbsp;&lt;/span&gt;&lt;span style=&quot;background-color: initial;&quot;&gt;string&lt;/span&gt;&lt;/p&gt;&lt;p style=&quot;margin: 0px 0px 0px 4px;&quot;&gt;+ STableName : static&amp;nbsp;string&lt;/p&gt;&lt;p style=&quot;margin: 0px 0px 0px 4px;&quot;&gt;+ GOTableName :&amp;nbsp;&lt;span style=&quot;background-color: initial;&quot;&gt;static&lt;/span&gt;&lt;span style=&quot;background-color: initial;&quot;&gt;&amp;nbsp;&lt;/span&gt;&lt;span style=&quot;background-color: initial;&quot;&gt;string&lt;/span&gt;&lt;/p&gt;" style="text;strokeColor=none;fillColor=none;align=left;verticalAlign=top;spacingLeft=4;spacingRight=4;overflow=hidden;rotatable=0;points=[[0,0.5],[1,0.5]];portConstraint=eastwest;whiteSpace=wrap;html=1;" vertex="1" parent="1QPHesBKEYhvxCualvM5-10">
          <mxGeometry y="26" width="340" height="144" as="geometry" />
        </mxCell>
        <mxCell id="1QPHesBKEYhvxCualvM5-12" value="" style="line;strokeWidth=1;fillColor=none;align=left;verticalAlign=middle;spacingTop=-1;spacingLeft=3;spacingRight=3;rotatable=0;labelPosition=right;points=[];portConstraint=eastwest;strokeColor=inherit;" vertex="1" parent="1QPHesBKEYhvxCualvM5-10">
          <mxGeometry y="170" width="340" height="8" as="geometry" />
        </mxCell>
        <mxCell id="1QPHesBKEYhvxCualvM5-13" value="&lt;p style=&quot;margin: 0px 0px 0px 4px;&quot;&gt;+ StringSToAccount(account :&amp;nbsp;&lt;span style=&quot;background-color: initial;&quot;&gt;string&lt;/span&gt;&lt;span style=&quot;background-color: initial;&quot;&gt;) :&amp;nbsp;&lt;/span&gt;&lt;span style=&quot;background-color: initial;&quot;&gt;static&lt;/span&gt;&lt;span style=&quot;background-color: initial;&quot;&gt;&amp;nbsp;&lt;/span&gt;&lt;span style=&quot;background-color: initial;&quot;&gt;Account&lt;/span&gt;&lt;/p&gt;&lt;p style=&quot;margin: 0px 0px 0px 4px;&quot;&gt;+ AccountToStringS(account :&amp;nbsp;&lt;span style=&quot;background-color: initial;&quot;&gt;Account&lt;/span&gt;&lt;span style=&quot;background-color: initial;&quot;&gt;&amp;nbsp;&lt;/span&gt;&lt;span style=&quot;background-color: initial;&quot;&gt;) :&amp;nbsp;&lt;/span&gt;&lt;span style=&quot;background-color: initial;&quot;&gt;static&lt;/span&gt;&lt;span style=&quot;background-color: initial;&quot;&gt;&amp;nbsp;&lt;/span&gt;&lt;span style=&quot;background-color: initial;&quot;&gt;string&lt;/span&gt;&lt;/p&gt;&lt;p style=&quot;margin: 0px 0px 0px 4px;&quot;&gt;+ AccountToString(account :&amp;nbsp;&lt;span style=&quot;background-color: initial;&quot;&gt;Account&lt;/span&gt;&lt;span style=&quot;background-color: initial;&quot;&gt;) :&amp;nbsp;&lt;/span&gt;&lt;span style=&quot;background-color: initial;&quot;&gt;static&lt;/span&gt;&lt;span style=&quot;background-color: initial;&quot;&gt;&amp;nbsp;&lt;/span&gt;&lt;span style=&quot;background-color: initial;&quot;&gt;&amp;nbsp;string&lt;/span&gt;&lt;/p&gt;&lt;p style=&quot;margin: 0px 0px 0px 4px;&quot;&gt;+ AccountToStringDB(account :&amp;nbsp;&lt;span style=&quot;background-color: initial;&quot;&gt;Account&lt;/span&gt;&lt;span style=&quot;background-color: initial;&quot;&gt;) :&amp;nbsp;&lt;/span&gt;&lt;span style=&quot;background-color: initial;&quot;&gt;static&lt;/span&gt;&lt;span style=&quot;background-color: initial;&quot;&gt;&amp;nbsp;&lt;/span&gt;&lt;span style=&quot;background-color: initial;&quot;&gt;string&lt;/span&gt;&lt;/p&gt;&lt;p style=&quot;margin: 0px 0px 0px 4px;&quot;&gt;+ GoodToStringS(good : Good) :&amp;nbsp;&lt;span style=&quot;background-color: initial;&quot;&gt;static&lt;/span&gt;&lt;span style=&quot;background-color: initial;&quot;&gt;&amp;nbsp;&lt;/span&gt;&lt;span style=&quot;background-color: initial;&quot;&gt;string&lt;/span&gt;&lt;/p&gt;&lt;p style=&quot;margin: 0px 0px 0px 4px;&quot;&gt;+ DBReadable(str :&amp;nbsp;&lt;span style=&quot;background-color: initial;&quot;&gt;string&lt;/span&gt;&lt;span style=&quot;background-color: initial;&quot;&gt;) :&amp;nbsp;&lt;/span&gt;&lt;span style=&quot;background-color: initial;&quot;&gt;static&lt;/span&gt;&lt;span style=&quot;background-color: initial;&quot;&gt;&amp;nbsp;&lt;/span&gt;&lt;span style=&quot;background-color: initial;&quot;&gt;string&lt;/span&gt;&lt;/p&gt;&lt;p style=&quot;margin: 0px 0px 0px 4px;&quot;&gt;+ SellerToString(seller :&amp;nbsp;&lt;span style=&quot;background-color: initial;&quot;&gt;Seller&lt;/span&gt;&lt;span style=&quot;background-color: initial;&quot;&gt;) :&amp;nbsp;&lt;/span&gt;&lt;span style=&quot;background-color: initial;&quot;&gt;static&lt;/span&gt;&lt;span style=&quot;background-color: initial;&quot;&gt;&amp;nbsp;&lt;/span&gt;&lt;span style=&quot;background-color: initial;&quot;&gt;string&lt;/span&gt;&lt;/p&gt;&lt;p style=&quot;margin: 0px 0px 0px 4px;&quot;&gt;+ GoodToString(good :&amp;nbsp;&lt;span style=&quot;background-color: initial;&quot;&gt;Good&lt;/span&gt;&lt;span style=&quot;background-color: initial;&quot;&gt;) :&amp;nbsp;&lt;/span&gt;&lt;span style=&quot;background-color: initial;&quot;&gt;static&lt;/span&gt;&lt;span style=&quot;background-color: initial;&quot;&gt;&amp;nbsp;&lt;/span&gt;&lt;span style=&quot;background-color: initial;&quot;&gt;string&lt;/span&gt;&lt;/p&gt;&lt;p style=&quot;margin: 0px 0px 0px 4px;&quot;&gt;+ StringToGood(good :&amp;nbsp;&lt;span style=&quot;background-color: initial;&quot;&gt;Good&lt;/span&gt;&lt;span style=&quot;background-color: initial;&quot;&gt;, goodStr :&amp;nbsp;&lt;/span&gt;&lt;span style=&quot;background-color: initial;&quot;&gt;string&lt;/span&gt;&lt;span style=&quot;background-color: initial;&quot;&gt;) :&amp;nbsp;&lt;/span&gt;&lt;span style=&quot;background-color: initial;&quot;&gt;static&lt;/span&gt;&lt;span style=&quot;background-color: initial;&quot;&gt;&amp;nbsp;&lt;/span&gt;&lt;span style=&quot;background-color: initial;&quot;&gt;void&lt;/span&gt;&lt;/p&gt;" style="text;strokeColor=none;fillColor=none;align=left;verticalAlign=top;spacingLeft=4;spacingRight=4;overflow=hidden;rotatable=0;points=[[0,0.5],[1,0.5]];portConstraint=eastwest;whiteSpace=wrap;html=1;" vertex="1" parent="1QPHesBKEYhvxCualvM5-10">
          <mxGeometry y="178" width="340" height="142" as="geometry" />
        </mxCell>
        <mxCell id="1QPHesBKEYhvxCualvM5-15" value="&lt;b&gt;UIQuerySender&lt;/b&gt;" style="swimlane;fontStyle=1;align=center;verticalAlign=top;childLayout=stackLayout;horizontal=1;startSize=26;horizontalStack=0;resizeParent=1;resizeParentMax=0;resizeLast=0;collapsible=1;marginBottom=0;whiteSpace=wrap;html=1;" vertex="1" parent="WIyWlLk6GJQsqaUBKTNV-1">
          <mxGeometry x="2300" y="-40" width="340" height="870" as="geometry" />
        </mxCell>
        <mxCell id="1QPHesBKEYhvxCualvM5-16" value="&lt;p style=&quot;margin: 0px 0px 0px 4px;&quot;&gt;- authorizationPanel : AuthorisationPanel&lt;/p&gt;&lt;p style=&quot;margin: 0px 0px 0px 4px;&quot;&gt;- goodsPanel : GoodsPanel&lt;/p&gt;&lt;p style=&quot;margin: 0px 0px 0px 4px;&quot;&gt;- controlPanel : ControlPanel&lt;/p&gt;&lt;p style=&quot;margin: 0px 0px 0px 4px;&quot;&gt;- exceptionPanel : ExceptionPanel&lt;/p&gt;&lt;p style=&quot;margin: 0px 0px 0px 4px;&quot;&gt;- accountPanel : AccountPanel&lt;/p&gt;&lt;p style=&quot;margin: 0px 0px 0px 4px;&quot;&gt;- adminPanel : AdminPanel&lt;/p&gt;&lt;p style=&quot;margin: 0px 0px 0px 4px;&quot;&gt;- sellerPanel : SellerPanel&lt;/p&gt;&lt;p style=&quot;margin: 0px 0px 0px 4px;&quot;&gt;- goodPanel : GoodPanel&lt;/p&gt;&lt;p style=&quot;margin: 0px 0px 0px 4px;&quot;&gt;- client : SimpleTCPClient&lt;/p&gt;&lt;p style=&quot;margin: 0px 0px 0px 4px;&quot;&gt;- _command : Queue&amp;lt;UICommand&amp;gt;&lt;/p&gt;&lt;p style=&quot;margin: 0px 0px 0px 4px;&quot;&gt;- _instance : UIQuerySender&lt;/p&gt;&lt;p style=&quot;margin: 0px 0px 0px 4px;&quot;&gt;- _cooldown : float&lt;/p&gt;&lt;p style=&quot;margin: 0px 0px 0px 4px;&quot;&gt;- _maxCooldown : float&lt;/p&gt;&lt;p style=&quot;margin: 0px 0px 0px 4px;&quot;&gt;+ Instance : UIQuerySender&lt;/p&gt;" style="text;strokeColor=none;fillColor=none;align=left;verticalAlign=top;spacingLeft=4;spacingRight=4;overflow=hidden;rotatable=0;points=[[0,0.5],[1,0.5]];portConstraint=eastwest;whiteSpace=wrap;html=1;" vertex="1" parent="1QPHesBKEYhvxCualvM5-15">
          <mxGeometry y="26" width="340" height="214" as="geometry" />
        </mxCell>
        <mxCell id="1QPHesBKEYhvxCualvM5-17" value="" style="line;strokeWidth=1;fillColor=none;align=left;verticalAlign=middle;spacingTop=-1;spacingLeft=3;spacingRight=3;rotatable=0;labelPosition=right;points=[];portConstraint=eastwest;strokeColor=inherit;" vertex="1" parent="1QPHesBKEYhvxCualvM5-15">
          <mxGeometry y="240" width="340" height="8" as="geometry" />
        </mxCell>
        <mxCell id="1QPHesBKEYhvxCualvM5-18" value="&lt;p style=&quot;margin: 0px 0px 0px 4px;&quot;&gt;- Start() : void&lt;/p&gt;&lt;p style=&quot;margin: 0px 0px 0px 4px;&quot;&gt;- FixedUpdate() : void&lt;/p&gt;&lt;p style=&quot;margin: 0px 0px 0px 4px;&quot;&gt;+ AddCommand(command :&amp;nbsp;&lt;span style=&quot;background-color: initial;&quot;&gt;UICommand&lt;/span&gt;&lt;span style=&quot;background-color: initial;&quot;&gt;) : void&lt;/span&gt;&lt;/p&gt;&lt;p style=&quot;margin: 0px 0px 0px 4px;&quot;&gt;+ SendQuery(query :&amp;nbsp;&lt;span style=&quot;background-color: initial;&quot;&gt;string&lt;/span&gt;&lt;span style=&quot;background-color: initial;&quot;&gt;) : void&lt;/span&gt;&lt;/p&gt;&lt;p style=&quot;margin: 0px 0px 0px 4px;&quot;&gt;+ ToggleAuthorisePanel(active :&amp;nbsp;&lt;span style=&quot;background-color: initial;&quot;&gt;bool&lt;/span&gt;&lt;span style=&quot;background-color: initial;&quot;&gt;) : void&lt;/span&gt;&lt;/p&gt;&lt;p style=&quot;margin: 0px 0px 0px 4px;&quot;&gt;+ ShowException(exceptionText&amp;nbsp;&lt;span style=&quot;background-color: initial;&quot;&gt;:&amp;nbsp;&lt;/span&gt;&lt;span style=&quot;background-color: initial;&quot;&gt;string&lt;/span&gt;&lt;span style=&quot;background-color: initial;&quot;&gt;) : void&lt;/span&gt;&lt;/p&gt;&lt;p style=&quot;margin: 0px 0px 0px 4px;&quot;&gt;+ RefreshAccountInfo() : void&lt;/p&gt;&lt;p style=&quot;margin: 0px 0px 0px 4px;&quot;&gt;+ Reconnect() : void&lt;/p&gt;&lt;p style=&quot;margin: 0px 0px 0px 4px;&quot;&gt;+ ActivateShop() : void&lt;/p&gt;&lt;p style=&quot;margin: 0px 0px 0px 4px;&quot;&gt;+ HidePanels() : void&lt;/p&gt;&lt;p style=&quot;margin: 0px 0px 0px 4px;&quot;&gt;+ ToggleAccount() : void&lt;/p&gt;&lt;p style=&quot;margin: 0px 0px 0px 4px;&quot;&gt;+ ToggleAdminPanel() : void&lt;/p&gt;&lt;p style=&quot;margin: 0px 0px 0px 4px;&quot;&gt;+ ToggleSellerPanel() : void&lt;/p&gt;&lt;p style=&quot;margin: 0px 0px 0px 4px;&quot;&gt;+ ContinueAccountsAdding() : void&lt;/p&gt;&lt;p style=&quot;margin: 0px 0px 0px 4px;&quot;&gt;+ ContinueGamesAdding() : void&lt;/p&gt;&lt;p style=&quot;margin: 0px 0px 0px 4px;&quot;&gt;+ ContinuePaymentMethods() : void&lt;/p&gt;&lt;p style=&quot;margin: 0px 0px 0px 4px;&quot;&gt;+ ContinueSellersAdding() : void&lt;/p&gt;&lt;p style=&quot;margin: 0px 0px 0px 4px;&quot;&gt;+ ContinueAdminKeyAdding() : void&lt;/p&gt;&lt;p style=&quot;margin: 0px 0px 0px 4px;&quot;&gt;+ ContinueGoodsAdding() : void&lt;/p&gt;&lt;p style=&quot;margin: 0px 0px 0px 4px;&quot;&gt;+ ShowGoods(goods&amp;nbsp;&lt;span style=&quot;background-color: initial;&quot;&gt;:&amp;nbsp;&lt;/span&gt;&lt;span style=&quot;background-color: initial;&quot;&gt;string&lt;/span&gt;&lt;span style=&quot;background-color: initial;&quot;&gt;) : void&lt;/span&gt;&lt;/p&gt;&lt;p style=&quot;margin: 0px 0px 0px 4px;&quot;&gt;+ ShowGood(goodStr&amp;nbsp;&lt;span style=&quot;background-color: initial;&quot;&gt;:&amp;nbsp;&lt;/span&gt;&lt;span style=&quot;background-color: initial;&quot;&gt;string&lt;/span&gt;&lt;span style=&quot;background-color: initial;&quot;&gt;) : void&lt;/span&gt;&lt;/p&gt;&lt;p style=&quot;margin: 0px 0px 0px 4px;&quot;&gt;+ ShowGoodEdit(goodStr&amp;nbsp;&lt;span style=&quot;background-color: initial;&quot;&gt;:&amp;nbsp;&lt;/span&gt;&lt;span style=&quot;background-color: initial;&quot;&gt;string&lt;/span&gt;&lt;span style=&quot;background-color: initial;&quot;&gt;) : void&lt;/span&gt;&lt;/p&gt;&lt;p style=&quot;margin: 0px 0px 0px 4px;&quot;&gt;+ ShowGood(good :&amp;nbsp;&lt;span style=&quot;background-color: initial;&quot;&gt;Good&lt;/span&gt;&lt;span style=&quot;background-color: initial;&quot;&gt;) : void&lt;/span&gt;&lt;/p&gt;&lt;p style=&quot;margin: 0px 0px 0px 4px;&quot;&gt;+ ShowGoodEdit(good :&amp;nbsp;&lt;span style=&quot;background-color: initial;&quot;&gt;Good&lt;/span&gt;&lt;span style=&quot;background-color: initial;&quot;&gt;) : void&lt;/span&gt;&lt;/p&gt;&lt;p style=&quot;margin: 0px 0px 0px 4px;&quot;&gt;+ ShowGoodAdd() : void&lt;/p&gt;&lt;p style=&quot;margin: 0px 0px 0px 4px;&quot;&gt;+ ShowGoodsAP(goods&amp;nbsp;&lt;span style=&quot;background-color: initial;&quot;&gt;:&amp;nbsp;&lt;/span&gt;&lt;span style=&quot;background-color: initial;&quot;&gt;string&lt;/span&gt;&lt;span style=&quot;background-color: initial;&quot;&gt;) : void&lt;/span&gt;&lt;/p&gt;&lt;p style=&quot;margin: 0px 0px 0px 4px;&quot;&gt;+ ShowGoodsEdit(goods&amp;nbsp;&lt;span style=&quot;background-color: initial;&quot;&gt;:&amp;nbsp;&lt;/span&gt;&lt;span style=&quot;background-color: initial;&quot;&gt;string&lt;/span&gt;&lt;span style=&quot;background-color: initial;&quot;&gt;) : void&lt;/span&gt;&lt;/p&gt;&lt;p style=&quot;margin: 0px 0px 0px 4px;&quot;&gt;+ ShowAccounts(accounts&amp;nbsp;&lt;span style=&quot;background-color: initial;&quot;&gt;:&amp;nbsp;&lt;/span&gt;&lt;span style=&quot;background-color: initial;&quot;&gt;string&lt;/span&gt;&lt;span style=&quot;background-color: initial;&quot;&gt;) : void&lt;/span&gt;&lt;/p&gt;&lt;p style=&quot;margin: 0px 0px 0px 4px;&quot;&gt;+ ShowGames(games&amp;nbsp;&lt;span style=&quot;background-color: initial;&quot;&gt;:&amp;nbsp;&lt;/span&gt;&lt;span style=&quot;background-color: initial;&quot;&gt;string&lt;/span&gt;&lt;span style=&quot;background-color: initial;&quot;&gt;) : void&lt;/span&gt;&lt;/p&gt;&lt;p style=&quot;margin: 0px 0px 0px 4px;&quot;&gt;+ ShowSellers(games&amp;nbsp;&lt;span style=&quot;background-color: initial;&quot;&gt;:&amp;nbsp;&lt;/span&gt;&lt;span style=&quot;background-color: initial;&quot;&gt;string&lt;/span&gt;&lt;span style=&quot;background-color: initial;&quot;&gt;) : void&lt;/span&gt;&lt;/p&gt;&lt;p style=&quot;margin: 0px 0px 0px 4px;&quot;&gt;+ ShowPaymentMethods(games&amp;nbsp;&lt;span style=&quot;background-color: initial;&quot;&gt;:&amp;nbsp;&lt;/span&gt;&lt;span style=&quot;background-color: initial;&quot;&gt;string&lt;/span&gt;&lt;span style=&quot;background-color: initial;&quot;&gt;) : void&lt;/span&gt;&lt;/p&gt;&lt;p style=&quot;margin: 0px 0px 0px 4px;&quot;&gt;+ ShowAdminKeys(adminKeys&amp;nbsp;&lt;span style=&quot;background-color: initial;&quot;&gt;:&amp;nbsp;&lt;/span&gt;&lt;span style=&quot;background-color: initial;&quot;&gt;string&lt;/span&gt;&lt;span style=&quot;background-color: initial;&quot;&gt;) : void&lt;/span&gt;&lt;/p&gt;&lt;p style=&quot;margin: 0px 0px 0px 4px;&quot;&gt;+ EnterAdminMode() : void&lt;/p&gt;&lt;p style=&quot;margin: 0px 0px 0px 4px;&quot;&gt;+ EnterSellerMode() : void&lt;/p&gt;&lt;p style=&quot;margin: 0px 0px 0px 4px;&quot;&gt;+ SendGamesRequest() : void&lt;/p&gt;&lt;p style=&quot;margin: 0px 0px 0px 4px;&quot;&gt;+ SendGoodsRequest() : void&lt;/p&gt;&lt;p style=&quot;margin: 0px 0px 0px 4px;&quot;&gt;+ SendGoodsAPRequest() : void&lt;/p&gt;&lt;p style=&quot;margin: 0px 0px 0px 4px;&quot;&gt;+ SendGoodsEditRequest() : void&lt;/p&gt;&lt;p style=&quot;margin: 0px 0px 0px 4px;&quot;&gt;+ SendSellersRequest() : void&lt;/p&gt;&lt;p style=&quot;margin: 0px 0px 0px 4px;&quot;&gt;+ SendAccountsRequest() : void&lt;/p&gt;&lt;p style=&quot;margin: 0px 0px 0px 4px;&quot;&gt;+ SendPaymentMethodsRequest() : void&lt;/p&gt;&lt;p style=&quot;margin: 0px 0px 0px 4px;&quot;&gt;+ SendAdminKeysRequest() : void&lt;/p&gt;" style="text;strokeColor=none;fillColor=none;align=left;verticalAlign=top;spacingLeft=4;spacingRight=4;overflow=hidden;rotatable=0;points=[[0,0.5],[1,0.5]];portConstraint=eastwest;whiteSpace=wrap;html=1;" vertex="1" parent="1QPHesBKEYhvxCualvM5-15">
          <mxGeometry y="248" width="340" height="622" as="geometry" />
        </mxCell>
        <mxCell id="1QPHesBKEYhvxCualvM5-249" style="edgeStyle=orthogonalEdgeStyle;rounded=0;orthogonalLoop=1;jettySize=auto;html=1;endArrow=open;endFill=0;endSize=22;dashed=1;dashPattern=12 12;" edge="1" parent="WIyWlLk6GJQsqaUBKTNV-1" source="1QPHesBKEYhvxCualvM5-19" target="1QPHesBKEYhvxCualvM5-15">
          <mxGeometry relative="1" as="geometry">
            <Array as="points">
              <mxPoint x="2310" y="1040" />
              <mxPoint x="2470" y="1040" />
            </Array>
          </mxGeometry>
        </mxCell>
        <mxCell id="1QPHesBKEYhvxCualvM5-19" value="&lt;b&gt;UICommand&lt;/b&gt;" style="swimlane;fontStyle=1;align=center;verticalAlign=top;childLayout=stackLayout;horizontal=1;startSize=26;horizontalStack=0;resizeParent=1;resizeParentMax=0;resizeLast=0;collapsible=1;marginBottom=0;whiteSpace=wrap;html=1;" vertex="1" parent="WIyWlLk6GJQsqaUBKTNV-1">
          <mxGeometry x="2080" y="1230" width="380" height="120" as="geometry" />
        </mxCell>
        <mxCell id="1QPHesBKEYhvxCualvM5-20" value="&lt;p style=&quot;margin: 0px 0px 0px 4px;&quot;&gt;+ Value : string&lt;/p&gt;&lt;p style=&quot;margin: 0px 0px 0px 4px;&quot;&gt;+ Type : UICommandType&lt;/p&gt;" style="text;strokeColor=none;fillColor=none;align=left;verticalAlign=top;spacingLeft=4;spacingRight=4;overflow=hidden;rotatable=0;points=[[0,0.5],[1,0.5]];portConstraint=eastwest;whiteSpace=wrap;html=1;" vertex="1" parent="1QPHesBKEYhvxCualvM5-19">
          <mxGeometry y="26" width="380" height="34" as="geometry" />
        </mxCell>
        <mxCell id="1QPHesBKEYhvxCualvM5-21" value="" style="line;strokeWidth=1;fillColor=none;align=left;verticalAlign=middle;spacingTop=-1;spacingLeft=3;spacingRight=3;rotatable=0;labelPosition=right;points=[];portConstraint=eastwest;strokeColor=inherit;" vertex="1" parent="1QPHesBKEYhvxCualvM5-19">
          <mxGeometry y="60" width="380" height="8" as="geometry" />
        </mxCell>
        <mxCell id="1QPHesBKEYhvxCualvM5-22" value="&lt;p style=&quot;margin: 0px 0px 0px 4px;&quot;&gt;+ UICommand(value :&amp;nbsp;&lt;span style=&quot;background-color: initial;&quot;&gt;string&lt;/span&gt;&lt;span style=&quot;background-color: initial;&quot;&gt;, type :&amp;nbsp;&lt;/span&gt;&lt;span style=&quot;background-color: initial;&quot;&gt;UICommandType&lt;/span&gt;&lt;span style=&quot;background-color: initial;&quot;&gt;) : UICommand&lt;/span&gt;&lt;/p&gt;&lt;p style=&quot;margin: 0px 0px 0px 4px;&quot;&gt;+ UICommand(type :&amp;nbsp;&lt;span style=&quot;background-color: initial;&quot;&gt;UICommandType&lt;/span&gt;&lt;span style=&quot;background-color: initial;&quot;&gt;) : UICommand&lt;/span&gt;&lt;/p&gt;&lt;p style=&quot;margin: 0px 0px 0px 4px;&quot;&gt;+ Execute() : void&lt;/p&gt;" style="text;strokeColor=none;fillColor=none;align=left;verticalAlign=top;spacingLeft=4;spacingRight=4;overflow=hidden;rotatable=0;points=[[0,0.5],[1,0.5]];portConstraint=eastwest;whiteSpace=wrap;html=1;" vertex="1" parent="1QPHesBKEYhvxCualvM5-19">
          <mxGeometry y="68" width="380" height="52" as="geometry" />
        </mxCell>
        <mxCell id="1QPHesBKEYhvxCualvM5-196" style="edgeStyle=orthogonalEdgeStyle;rounded=0;orthogonalLoop=1;jettySize=auto;html=1;endArrow=diamondThin;endFill=1;endSize=22;" edge="1" parent="WIyWlLk6GJQsqaUBKTNV-1" source="1QPHesBKEYhvxCualvM5-24" target="1QPHesBKEYhvxCualvM5-114">
          <mxGeometry relative="1" as="geometry" />
        </mxCell>
        <mxCell id="1QPHesBKEYhvxCualvM5-24" value="&lt;b&gt;DataStructureElement&lt;/b&gt;" style="swimlane;fontStyle=1;align=center;verticalAlign=top;childLayout=stackLayout;horizontal=1;startSize=26;horizontalStack=0;resizeParent=1;resizeParentMax=0;resizeLast=0;collapsible=1;marginBottom=0;whiteSpace=wrap;html=1;" vertex="1" parent="WIyWlLk6GJQsqaUBKTNV-1">
          <mxGeometry x="1780" y="423" width="170" height="160" as="geometry" />
        </mxCell>
        <mxCell id="1QPHesBKEYhvxCualvM5-25" value="&lt;p style=&quot;margin: 0px 0px 0px 4px;&quot;&gt;+ _uiScaling : UIScaling&lt;br&gt;&lt;/p&gt;" style="text;strokeColor=none;fillColor=none;align=left;verticalAlign=top;spacingLeft=4;spacingRight=4;overflow=hidden;rotatable=0;points=[[0,0.5],[1,0.5]];portConstraint=eastwest;whiteSpace=wrap;html=1;" vertex="1" parent="1QPHesBKEYhvxCualvM5-24">
          <mxGeometry y="26" width="170" height="24" as="geometry" />
        </mxCell>
        <mxCell id="1QPHesBKEYhvxCualvM5-26" value="" style="line;strokeWidth=1;fillColor=none;align=left;verticalAlign=middle;spacingTop=-1;spacingLeft=3;spacingRight=3;rotatable=0;labelPosition=right;points=[];portConstraint=eastwest;strokeColor=inherit;" vertex="1" parent="1QPHesBKEYhvxCualvM5-24">
          <mxGeometry y="50" width="170" height="8" as="geometry" />
        </mxCell>
        <mxCell id="1QPHesBKEYhvxCualvM5-27" value="&lt;p style=&quot;margin: 0px 0px 0px 4px;&quot;&gt;- Start() : void&lt;/p&gt;&lt;p style=&quot;margin: 0px 0px 0px 4px;&quot;&gt;+ Show() : void&lt;/p&gt;&lt;p style=&quot;margin: 0px 0px 0px 4px;&quot;&gt;+ Hide() : void&lt;/p&gt;&lt;p style=&quot;margin: 0px 0px 0px 4px;&quot;&gt;+ Clear() : void&lt;/p&gt;&lt;p style=&quot;margin: 0px 0px 0px 4px;&quot;&gt;+ Toggle(show :&amp;nbsp;&lt;span style=&quot;background-color: initial;&quot;&gt;bool&lt;/span&gt;&lt;span style=&quot;background-color: initial;&quot;&gt;) : void&lt;/span&gt;&lt;/p&gt;&lt;p style=&quot;margin: 0px 0px 0px 4px;&quot;&gt;+ Toggle() : void&lt;/p&gt;" style="text;strokeColor=none;fillColor=none;align=left;verticalAlign=top;spacingLeft=4;spacingRight=4;overflow=hidden;rotatable=0;points=[[0,0.5],[1,0.5]];portConstraint=eastwest;whiteSpace=wrap;html=1;" vertex="1" parent="1QPHesBKEYhvxCualvM5-24">
          <mxGeometry y="58" width="170" height="102" as="geometry" />
        </mxCell>
        <mxCell id="1QPHesBKEYhvxCualvM5-162" style="edgeStyle=orthogonalEdgeStyle;rounded=0;orthogonalLoop=1;jettySize=auto;html=1;endArrow=block;endFill=0;endSize=22;jumpStyle=arc;" edge="1" parent="WIyWlLk6GJQsqaUBKTNV-1" source="1QPHesBKEYhvxCualvM5-28" target="1QPHesBKEYhvxCualvM5-24">
          <mxGeometry relative="1" as="geometry" />
        </mxCell>
        <mxCell id="1QPHesBKEYhvxCualvM5-221" style="edgeStyle=orthogonalEdgeStyle;rounded=0;orthogonalLoop=1;jettySize=auto;html=1;endArrow=open;endFill=0;endSize=22;dashed=1;dashPattern=12 12;" edge="1" parent="WIyWlLk6GJQsqaUBKTNV-1" source="1QPHesBKEYhvxCualvM5-28" target="1QPHesBKEYhvxCualvM5-15">
          <mxGeometry relative="1" as="geometry">
            <Array as="points">
              <mxPoint x="2210" y="680" />
              <mxPoint x="2210" y="260" />
            </Array>
          </mxGeometry>
        </mxCell>
        <mxCell id="1QPHesBKEYhvxCualvM5-28" value="&lt;b&gt;GameAddElement&lt;/b&gt;" style="swimlane;fontStyle=1;align=center;verticalAlign=top;childLayout=stackLayout;horizontal=1;startSize=26;horizontalStack=0;resizeParent=1;resizeParentMax=0;resizeLast=0;collapsible=1;marginBottom=0;whiteSpace=wrap;html=1;" vertex="1" parent="WIyWlLk6GJQsqaUBKTNV-1">
          <mxGeometry x="1360" y="605" width="240" height="100" as="geometry" />
        </mxCell>
        <mxCell id="1QPHesBKEYhvxCualvM5-29" value="&lt;p style=&quot;margin: 0px 0px 0px 4px;&quot;&gt;- inputFieldGameName : TMP_InputField&lt;br&gt;&lt;/p&gt;" style="text;strokeColor=none;fillColor=none;align=left;verticalAlign=top;spacingLeft=4;spacingRight=4;overflow=hidden;rotatable=0;points=[[0,0.5],[1,0.5]];portConstraint=eastwest;whiteSpace=wrap;html=1;" vertex="1" parent="1QPHesBKEYhvxCualvM5-28">
          <mxGeometry y="26" width="240" height="24" as="geometry" />
        </mxCell>
        <mxCell id="1QPHesBKEYhvxCualvM5-30" value="" style="line;strokeWidth=1;fillColor=none;align=left;verticalAlign=middle;spacingTop=-1;spacingLeft=3;spacingRight=3;rotatable=0;labelPosition=right;points=[];portConstraint=eastwest;strokeColor=inherit;" vertex="1" parent="1QPHesBKEYhvxCualvM5-28">
          <mxGeometry y="50" width="240" height="8" as="geometry" />
        </mxCell>
        <mxCell id="1QPHesBKEYhvxCualvM5-31" value="&lt;p style=&quot;margin: 0px 0px 0px 4px;&quot;&gt;+ FormOutputValue() : string&lt;/p&gt;&lt;p style=&quot;margin: 0px 0px 0px 4px;&quot;&gt;+ SendAddQuery() : void&lt;/p&gt;" style="text;strokeColor=none;fillColor=none;align=left;verticalAlign=top;spacingLeft=4;spacingRight=4;overflow=hidden;rotatable=0;points=[[0,0.5],[1,0.5]];portConstraint=eastwest;whiteSpace=wrap;html=1;" vertex="1" parent="1QPHesBKEYhvxCualvM5-28">
          <mxGeometry y="58" width="240" height="42" as="geometry" />
        </mxCell>
        <mxCell id="1QPHesBKEYhvxCualvM5-222" style="edgeStyle=orthogonalEdgeStyle;rounded=0;orthogonalLoop=1;jettySize=auto;html=1;jumpStyle=arc;jumpSize=22;endArrow=open;endFill=0;endSize=22;dashed=1;dashPattern=12 12;" edge="1" parent="WIyWlLk6GJQsqaUBKTNV-1" source="1QPHesBKEYhvxCualvM5-32" target="1QPHesBKEYhvxCualvM5-15">
          <mxGeometry relative="1" as="geometry">
            <Array as="points">
              <mxPoint x="2240" y="830" />
              <mxPoint x="2240" y="290" />
            </Array>
          </mxGeometry>
        </mxCell>
        <mxCell id="1QPHesBKEYhvxCualvM5-32" value="&lt;b&gt;GameElement&lt;/b&gt;" style="swimlane;fontStyle=1;align=center;verticalAlign=top;childLayout=stackLayout;horizontal=1;startSize=26;horizontalStack=0;resizeParent=1;resizeParentMax=0;resizeLast=0;collapsible=1;marginBottom=0;whiteSpace=wrap;html=1;" vertex="1" parent="WIyWlLk6GJQsqaUBKTNV-1">
          <mxGeometry x="1360" y="730" width="240" height="200" as="geometry" />
        </mxCell>
        <mxCell id="1QPHesBKEYhvxCualvM5-33" value="&lt;p style=&quot;margin: 0px 0px 0px 4px;&quot;&gt;+ game : Game&lt;/p&gt;&lt;p style=&quot;margin: 0px 0px 0px 4px;&quot;&gt;- inputPanel : GameObject&lt;/p&gt;&lt;p style=&quot;margin: 0px 0px 0px 4px;&quot;&gt;- outputPanel : GameObject&lt;/p&gt;&lt;p style=&quot;margin: 0px 0px 0px 4px;&quot;&gt;- inputFieldGameName : TMP_InputField&lt;/p&gt;&lt;p style=&quot;margin: 0px 0px 0px 4px;&quot;&gt;- textGameName : TMP_Text&lt;/p&gt;" style="text;strokeColor=none;fillColor=none;align=left;verticalAlign=top;spacingLeft=4;spacingRight=4;overflow=hidden;rotatable=0;points=[[0,0.5],[1,0.5]];portConstraint=eastwest;whiteSpace=wrap;html=1;" vertex="1" parent="1QPHesBKEYhvxCualvM5-32">
          <mxGeometry y="26" width="240" height="84" as="geometry" />
        </mxCell>
        <mxCell id="1QPHesBKEYhvxCualvM5-34" value="" style="line;strokeWidth=1;fillColor=none;align=left;verticalAlign=middle;spacingTop=-1;spacingLeft=3;spacingRight=3;rotatable=0;labelPosition=right;points=[];portConstraint=eastwest;strokeColor=inherit;" vertex="1" parent="1QPHesBKEYhvxCualvM5-32">
          <mxGeometry y="110" width="240" height="8" as="geometry" />
        </mxCell>
        <mxCell id="1QPHesBKEYhvxCualvM5-35" value="&lt;p style=&quot;margin: 0px 0px 0px 4px;&quot;&gt;+ UpdateTextValues() : void&lt;/p&gt;&lt;p style=&quot;margin: 0px 0px 0px 4px;&quot;&gt;+ ToggleEditMode(bool edit) : void&lt;/p&gt;&lt;p style=&quot;margin: 0px 0px 0px 4px;&quot;&gt;+ FormOutputValue() : string&lt;/p&gt;&lt;p style=&quot;margin: 0px 0px 0px 4px;&quot;&gt;+ SendModifyQuery() : void&lt;/p&gt;&lt;p style=&quot;margin: 0px 0px 0px 4px;&quot;&gt;+ SendDeleteQuery() : void&lt;/p&gt;" style="text;strokeColor=none;fillColor=none;align=left;verticalAlign=top;spacingLeft=4;spacingRight=4;overflow=hidden;rotatable=0;points=[[0,0.5],[1,0.5]];portConstraint=eastwest;whiteSpace=wrap;html=1;" vertex="1" parent="1QPHesBKEYhvxCualvM5-32">
          <mxGeometry y="118" width="240" height="82" as="geometry" />
        </mxCell>
        <mxCell id="1QPHesBKEYhvxCualvM5-164" style="edgeStyle=orthogonalEdgeStyle;rounded=0;orthogonalLoop=1;jettySize=auto;html=1;endArrow=block;endFill=0;endSize=22;jumpStyle=arc;jumpSize=10;" edge="1" parent="WIyWlLk6GJQsqaUBKTNV-1" source="1QPHesBKEYhvxCualvM5-36" target="1QPHesBKEYhvxCualvM5-24">
          <mxGeometry relative="1" as="geometry" />
        </mxCell>
        <mxCell id="1QPHesBKEYhvxCualvM5-231" style="edgeStyle=orthogonalEdgeStyle;rounded=0;orthogonalLoop=1;jettySize=auto;html=1;endArrow=open;endFill=0;endSize=22;dashed=1;dashPattern=12 12;" edge="1" parent="WIyWlLk6GJQsqaUBKTNV-1" source="1QPHesBKEYhvxCualvM5-36" target="1QPHesBKEYhvxCualvM5-15">
          <mxGeometry relative="1" as="geometry">
            <Array as="points">
              <mxPoint x="2120" y="-1010" />
              <mxPoint x="2120" y="110" />
            </Array>
          </mxGeometry>
        </mxCell>
        <mxCell id="1QPHesBKEYhvxCualvM5-36" value="&lt;b&gt;GoodElement&lt;/b&gt;" style="swimlane;fontStyle=1;align=center;verticalAlign=top;childLayout=stackLayout;horizontal=1;startSize=26;horizontalStack=0;resizeParent=1;resizeParentMax=0;resizeLast=0;collapsible=1;marginBottom=0;whiteSpace=wrap;html=1;" vertex="1" parent="WIyWlLk6GJQsqaUBKTNV-1">
          <mxGeometry x="1360" y="-1050" width="350" height="230" as="geometry" />
        </mxCell>
        <mxCell id="1QPHesBKEYhvxCualvM5-37" value="&lt;p style=&quot;margin: 0px 0px 0px 4px;&quot;&gt;+ good : Good&lt;/p&gt;&lt;p style=&quot;margin: 0px 0px 0px 4px;&quot;&gt;- outputPanel : GameObject&lt;/p&gt;&lt;p style=&quot;margin: 0px 0px 0px 4px;&quot;&gt;- textName : TMP_Text&lt;/p&gt;&lt;p style=&quot;margin: 0px 0px 0px 4px;&quot;&gt;- textSeller : TMP_Text&lt;/p&gt;&lt;p style=&quot;margin: 0px 0px 0px 4px;&quot;&gt;- textGame : TMP_Text&lt;/p&gt;&lt;p style=&quot;margin: 0px 0px 0px 4px;&quot;&gt;- textDescription : TMP_Text&lt;/p&gt;&lt;p style=&quot;margin: 0px 0px 0px 4px;&quot;&gt;- textPaymentMethod : TMP_Text&lt;/p&gt;&lt;p style=&quot;margin: 0px 0px 0px 4px;&quot;&gt;- textPrice : TMP_Text&lt;/p&gt;&lt;p style=&quot;margin: 0px 0px 0px 4px;&quot;&gt;- textStock : TMP_Text&lt;/p&gt;&lt;p style=&quot;margin: 0px 0px 0px 4px;&quot;&gt;+ Editable : bool&lt;/p&gt;" style="text;strokeColor=none;fillColor=none;align=left;verticalAlign=top;spacingLeft=4;spacingRight=4;overflow=hidden;rotatable=0;points=[[0,0.5],[1,0.5]];portConstraint=eastwest;whiteSpace=wrap;html=1;" vertex="1" parent="1QPHesBKEYhvxCualvM5-36">
          <mxGeometry y="26" width="350" height="154" as="geometry" />
        </mxCell>
        <mxCell id="1QPHesBKEYhvxCualvM5-38" value="" style="line;strokeWidth=1;fillColor=none;align=left;verticalAlign=middle;spacingTop=-1;spacingLeft=3;spacingRight=3;rotatable=0;labelPosition=right;points=[];portConstraint=eastwest;strokeColor=inherit;" vertex="1" parent="1QPHesBKEYhvxCualvM5-36">
          <mxGeometry y="180" width="350" height="8" as="geometry" />
        </mxCell>
        <mxCell id="1QPHesBKEYhvxCualvM5-39" value="&lt;p style=&quot;margin: 0px 0px 0px 4px;&quot;&gt;+ UpdateTextValues() : void&lt;/p&gt;&lt;p style=&quot;margin: 0px 0px 0px 4px;&quot;&gt;+ OnPointerClick(pointerEventData :&amp;nbsp;&lt;span style=&quot;background-color: initial;&quot;&gt;PointerEventData&lt;/span&gt;&lt;span style=&quot;background-color: initial;&quot;&gt;) : void&lt;/span&gt;&lt;/p&gt;" style="text;strokeColor=none;fillColor=none;align=left;verticalAlign=top;spacingLeft=4;spacingRight=4;overflow=hidden;rotatable=0;points=[[0,0.5],[1,0.5]];portConstraint=eastwest;whiteSpace=wrap;html=1;" vertex="1" parent="1QPHesBKEYhvxCualvM5-36">
          <mxGeometry y="188" width="350" height="42" as="geometry" />
        </mxCell>
        <mxCell id="1QPHesBKEYhvxCualvM5-232" style="edgeStyle=orthogonalEdgeStyle;rounded=0;orthogonalLoop=1;jettySize=auto;html=1;endArrow=open;endFill=0;endSize=22;dashed=1;dashPattern=12 12;" edge="1" parent="WIyWlLk6GJQsqaUBKTNV-1" source="1QPHesBKEYhvxCualvM5-40" target="1QPHesBKEYhvxCualvM5-15">
          <mxGeometry relative="1" as="geometry">
            <Array as="points">
              <mxPoint x="1840" y="-1110" />
              <mxPoint x="1840" y="-1010" />
              <mxPoint x="2120" y="-1010" />
              <mxPoint x="2120" y="110" />
            </Array>
          </mxGeometry>
        </mxCell>
        <mxCell id="1QPHesBKEYhvxCualvM5-40" value="&lt;b&gt;GoodElementAP&lt;/b&gt;" style="swimlane;fontStyle=1;align=center;verticalAlign=top;childLayout=stackLayout;horizontal=1;startSize=26;horizontalStack=0;resizeParent=1;resizeParentMax=0;resizeLast=0;collapsible=1;marginBottom=0;whiteSpace=wrap;html=1;" vertex="1" parent="WIyWlLk6GJQsqaUBKTNV-1">
          <mxGeometry x="1360" y="-1210" width="240" height="140" as="geometry" />
        </mxCell>
        <mxCell id="1QPHesBKEYhvxCualvM5-41" value="&lt;p style=&quot;margin: 0px 0px 0px 4px;&quot;&gt;+ good : Good&lt;/p&gt;&lt;p style=&quot;margin: 0px 0px 0px 4px;&quot;&gt;- goodName : TMP_Text&lt;/p&gt;&lt;p style=&quot;margin: 0px 0px 0px 4px;&quot;&gt;- sellerName : TMP_Text&lt;/p&gt;&lt;p style=&quot;margin: 0px 0px 0px 4px;&quot;&gt;- gameName : TMP_Text&lt;/p&gt;" style="text;strokeColor=none;fillColor=none;align=left;verticalAlign=top;spacingLeft=4;spacingRight=4;overflow=hidden;rotatable=0;points=[[0,0.5],[1,0.5]];portConstraint=eastwest;whiteSpace=wrap;html=1;" vertex="1" parent="1QPHesBKEYhvxCualvM5-40">
          <mxGeometry y="26" width="240" height="64" as="geometry" />
        </mxCell>
        <mxCell id="1QPHesBKEYhvxCualvM5-42" value="" style="line;strokeWidth=1;fillColor=none;align=left;verticalAlign=middle;spacingTop=-1;spacingLeft=3;spacingRight=3;rotatable=0;labelPosition=right;points=[];portConstraint=eastwest;strokeColor=inherit;" vertex="1" parent="1QPHesBKEYhvxCualvM5-40">
          <mxGeometry y="90" width="240" height="8" as="geometry" />
        </mxCell>
        <mxCell id="1QPHesBKEYhvxCualvM5-43" value="&lt;p style=&quot;margin: 0px 0px 0px 4px;&quot;&gt;+ UpdateTextValues() : void&lt;/p&gt;&lt;p style=&quot;margin: 0px 0px 0px 4px;&quot;&gt;+ SendDeleteQuery() : void&lt;/p&gt;" style="text;strokeColor=none;fillColor=none;align=left;verticalAlign=top;spacingLeft=4;spacingRight=4;overflow=hidden;rotatable=0;points=[[0,0.5],[1,0.5]];portConstraint=eastwest;whiteSpace=wrap;html=1;" vertex="1" parent="1QPHesBKEYhvxCualvM5-40">
          <mxGeometry y="98" width="240" height="42" as="geometry" />
        </mxCell>
        <mxCell id="1QPHesBKEYhvxCualvM5-165" style="edgeStyle=orthogonalEdgeStyle;rounded=0;orthogonalLoop=1;jettySize=auto;html=1;endArrow=block;endFill=0;endSize=22;jumpStyle=arc;" edge="1" parent="WIyWlLk6GJQsqaUBKTNV-1" source="1QPHesBKEYhvxCualvM5-45" target="1QPHesBKEYhvxCualvM5-24">
          <mxGeometry relative="1" as="geometry" />
        </mxCell>
        <mxCell id="1QPHesBKEYhvxCualvM5-223" style="edgeStyle=orthogonalEdgeStyle;rounded=0;orthogonalLoop=1;jettySize=auto;html=1;endArrow=open;endFill=0;endSize=22;dashed=1;dashPattern=12 12;" edge="1" parent="WIyWlLk6GJQsqaUBKTNV-1" source="1QPHesBKEYhvxCualvM5-45" target="1QPHesBKEYhvxCualvM5-15">
          <mxGeometry relative="1" as="geometry">
            <Array as="points">
              <mxPoint x="2260" y="1050" />
              <mxPoint x="2260" y="320" />
            </Array>
          </mxGeometry>
        </mxCell>
        <mxCell id="1QPHesBKEYhvxCualvM5-45" value="PaymentAddMethod" style="swimlane;fontStyle=1;align=center;verticalAlign=top;childLayout=stackLayout;horizontal=1;startSize=26;horizontalStack=0;resizeParent=1;resizeParentMax=0;resizeLast=0;collapsible=1;marginBottom=0;whiteSpace=wrap;html=1;" vertex="1" parent="WIyWlLk6GJQsqaUBKTNV-1">
          <mxGeometry x="1360" y="970" width="240" height="100" as="geometry" />
        </mxCell>
        <mxCell id="1QPHesBKEYhvxCualvM5-46" value="&lt;p style=&quot;margin: 0px 0px 0px 4px;&quot;&gt;- inputFieldMethodName : TMP_InputField&lt;br&gt;&lt;/p&gt;" style="text;strokeColor=none;fillColor=none;align=left;verticalAlign=top;spacingLeft=4;spacingRight=4;overflow=hidden;rotatable=0;points=[[0,0.5],[1,0.5]];portConstraint=eastwest;whiteSpace=wrap;html=1;" vertex="1" parent="1QPHesBKEYhvxCualvM5-45">
          <mxGeometry y="26" width="240" height="24" as="geometry" />
        </mxCell>
        <mxCell id="1QPHesBKEYhvxCualvM5-47" value="" style="line;strokeWidth=1;fillColor=none;align=left;verticalAlign=middle;spacingTop=-1;spacingLeft=3;spacingRight=3;rotatable=0;labelPosition=right;points=[];portConstraint=eastwest;strokeColor=inherit;" vertex="1" parent="1QPHesBKEYhvxCualvM5-45">
          <mxGeometry y="50" width="240" height="8" as="geometry" />
        </mxCell>
        <mxCell id="1QPHesBKEYhvxCualvM5-48" value="&lt;p style=&quot;margin: 0px 0px 0px 4px;&quot;&gt;+ FormOutputValue() : string&lt;/p&gt;&lt;p style=&quot;margin: 0px 0px 0px 4px;&quot;&gt;+ SendAddQuery() : void&lt;/p&gt;" style="text;strokeColor=none;fillColor=none;align=left;verticalAlign=top;spacingLeft=4;spacingRight=4;overflow=hidden;rotatable=0;points=[[0,0.5],[1,0.5]];portConstraint=eastwest;whiteSpace=wrap;html=1;" vertex="1" parent="1QPHesBKEYhvxCualvM5-45">
          <mxGeometry y="58" width="240" height="42" as="geometry" />
        </mxCell>
        <mxCell id="1QPHesBKEYhvxCualvM5-158" style="edgeStyle=orthogonalEdgeStyle;rounded=0;orthogonalLoop=1;jettySize=auto;html=1;endArrow=block;endFill=0;endSize=22;jumpStyle=arc;jumpSize=10;" edge="1" parent="WIyWlLk6GJQsqaUBKTNV-1" source="1QPHesBKEYhvxCualvM5-50" target="1QPHesBKEYhvxCualvM5-24">
          <mxGeometry relative="1" as="geometry" />
        </mxCell>
        <mxCell id="1QPHesBKEYhvxCualvM5-225" style="edgeStyle=orthogonalEdgeStyle;rounded=0;orthogonalLoop=1;jettySize=auto;html=1;endArrow=open;endFill=0;endSize=22;dashed=1;dashPattern=12 12;" edge="1" parent="WIyWlLk6GJQsqaUBKTNV-1">
          <mxGeometry relative="1" as="geometry">
            <mxPoint x="1600" y="450" as="sourcePoint" />
            <mxPoint x="2300.0000000000005" y="230" as="targetPoint" />
            <Array as="points">
              <mxPoint x="1680" y="450" />
              <mxPoint x="1680" y="360" />
              <mxPoint x="2000" y="360" />
              <mxPoint x="2000" y="230" />
            </Array>
          </mxGeometry>
        </mxCell>
        <mxCell id="1QPHesBKEYhvxCualvM5-50" value="&lt;b&gt;PaymentMethodElement&lt;/b&gt;" style="swimlane;fontStyle=1;align=center;verticalAlign=top;childLayout=stackLayout;horizontal=1;startSize=26;horizontalStack=0;resizeParent=1;resizeParentMax=0;resizeLast=0;collapsible=1;marginBottom=0;whiteSpace=wrap;html=1;" vertex="1" parent="WIyWlLk6GJQsqaUBKTNV-1">
          <mxGeometry x="1360" y="423" width="240" height="162" as="geometry" />
        </mxCell>
        <mxCell id="1QPHesBKEYhvxCualvM5-51" value="&lt;p style=&quot;margin: 0px 0px 0px 4px;&quot;&gt;+ paymentMethod : PaymentMethod&lt;/p&gt;&lt;p style=&quot;margin: 0px 0px 0px 4px;&quot;&gt;- inputPanel : GameObject&lt;/p&gt;&lt;p style=&quot;margin: 0px 0px 0px 4px;&quot;&gt;- outputPanel : GameObject&lt;/p&gt;&lt;p style=&quot;margin: 0px 0px 0px 4px;&quot;&gt;- inputFieldMethodName : TMP_InputField&lt;/p&gt;&lt;p style=&quot;margin: 0px 0px 0px 4px;&quot;&gt;- textMethodName : TMP_Text&lt;/p&gt;" style="text;strokeColor=none;fillColor=none;align=left;verticalAlign=top;spacingLeft=4;spacingRight=4;overflow=hidden;rotatable=0;points=[[0,0.5],[1,0.5]];portConstraint=eastwest;whiteSpace=wrap;html=1;" vertex="1" parent="1QPHesBKEYhvxCualvM5-50">
          <mxGeometry y="26" width="240" height="86" as="geometry" />
        </mxCell>
        <mxCell id="1QPHesBKEYhvxCualvM5-52" value="" style="line;strokeWidth=1;fillColor=none;align=left;verticalAlign=middle;spacingTop=-1;spacingLeft=3;spacingRight=3;rotatable=0;labelPosition=right;points=[];portConstraint=eastwest;strokeColor=inherit;" vertex="1" parent="1QPHesBKEYhvxCualvM5-50">
          <mxGeometry y="112" width="240" height="8" as="geometry" />
        </mxCell>
        <mxCell id="1QPHesBKEYhvxCualvM5-53" value="&lt;p style=&quot;margin: 0px 0px 0px 4px;&quot;&gt;+ UpdateTextValues() : void&lt;/p&gt;&lt;p style=&quot;margin: 0px 0px 0px 4px;&quot;&gt;+ SendDeleteQuery() : void&lt;/p&gt;" style="text;strokeColor=none;fillColor=none;align=left;verticalAlign=top;spacingLeft=4;spacingRight=4;overflow=hidden;rotatable=0;points=[[0,0.5],[1,0.5]];portConstraint=eastwest;whiteSpace=wrap;html=1;" vertex="1" parent="1QPHesBKEYhvxCualvM5-50">
          <mxGeometry y="120" width="240" height="42" as="geometry" />
        </mxCell>
        <mxCell id="1QPHesBKEYhvxCualvM5-157" style="edgeStyle=orthogonalEdgeStyle;rounded=0;orthogonalLoop=1;jettySize=auto;html=1;endArrow=block;endFill=0;endSize=22;jumpStyle=arc;jumpSize=10;" edge="1" parent="WIyWlLk6GJQsqaUBKTNV-1" source="1QPHesBKEYhvxCualvM5-54" target="1QPHesBKEYhvxCualvM5-24">
          <mxGeometry relative="1" as="geometry" />
        </mxCell>
        <mxCell id="1QPHesBKEYhvxCualvM5-226" style="edgeStyle=orthogonalEdgeStyle;rounded=0;orthogonalLoop=1;jettySize=auto;html=1;endArrow=open;endFill=0;endSize=22;dashed=1;dashPattern=12 12;" edge="1" parent="WIyWlLk6GJQsqaUBKTNV-1" source="1QPHesBKEYhvxCualvM5-54" target="1QPHesBKEYhvxCualvM5-15">
          <mxGeometry relative="1" as="geometry">
            <Array as="points">
              <mxPoint x="2000" y="360" />
              <mxPoint x="2000" y="230" />
            </Array>
          </mxGeometry>
        </mxCell>
        <mxCell id="1QPHesBKEYhvxCualvM5-54" value="&lt;b&gt;SellerAddElement&lt;/b&gt;" style="swimlane;fontStyle=1;align=center;verticalAlign=top;childLayout=stackLayout;horizontal=1;startSize=26;horizontalStack=0;resizeParent=1;resizeParentMax=0;resizeLast=0;collapsible=1;marginBottom=0;whiteSpace=wrap;html=1;" vertex="1" parent="WIyWlLk6GJQsqaUBKTNV-1">
          <mxGeometry x="1360" y="270" width="240" height="130" as="geometry" />
        </mxCell>
        <mxCell id="1QPHesBKEYhvxCualvM5-55" value="&lt;p style=&quot;margin: 0px 0px 0px 4px;&quot;&gt;- inputFieldLogin : TMP_InputField&lt;/p&gt;&lt;p style=&quot;margin: 0px 0px 0px 4px;&quot;&gt;- inputFieldName : TMP_InputField&lt;/p&gt;&lt;p style=&quot;margin: 0px 0px 0px 4px;&quot;&gt;- inputFieldRate : TMP_InputField&lt;/p&gt;" style="text;strokeColor=none;fillColor=none;align=left;verticalAlign=top;spacingLeft=4;spacingRight=4;overflow=hidden;rotatable=0;points=[[0,0.5],[1,0.5]];portConstraint=eastwest;whiteSpace=wrap;html=1;" vertex="1" parent="1QPHesBKEYhvxCualvM5-54">
          <mxGeometry y="26" width="240" height="54" as="geometry" />
        </mxCell>
        <mxCell id="1QPHesBKEYhvxCualvM5-56" value="" style="line;strokeWidth=1;fillColor=none;align=left;verticalAlign=middle;spacingTop=-1;spacingLeft=3;spacingRight=3;rotatable=0;labelPosition=right;points=[];portConstraint=eastwest;strokeColor=inherit;" vertex="1" parent="1QPHesBKEYhvxCualvM5-54">
          <mxGeometry y="80" width="240" height="8" as="geometry" />
        </mxCell>
        <mxCell id="1QPHesBKEYhvxCualvM5-57" value="&lt;p style=&quot;margin: 0px 0px 0px 4px;&quot;&gt;+ FormOutputValue() : string&lt;/p&gt;&lt;p style=&quot;margin: 0px 0px 0px 4px;&quot;&gt;+ SendAddQuery() : void&lt;/p&gt;" style="text;strokeColor=none;fillColor=none;align=left;verticalAlign=top;spacingLeft=4;spacingRight=4;overflow=hidden;rotatable=0;points=[[0,0.5],[1,0.5]];portConstraint=eastwest;whiteSpace=wrap;html=1;" vertex="1" parent="1QPHesBKEYhvxCualvM5-54">
          <mxGeometry y="88" width="240" height="42" as="geometry" />
        </mxCell>
        <mxCell id="1QPHesBKEYhvxCualvM5-156" style="edgeStyle=orthogonalEdgeStyle;rounded=0;orthogonalLoop=1;jettySize=auto;html=1;endArrow=block;endFill=0;endSize=22;jumpStyle=arc;jumpSize=10;" edge="1" parent="WIyWlLk6GJQsqaUBKTNV-1" source="1QPHesBKEYhvxCualvM5-58" target="1QPHesBKEYhvxCualvM5-24">
          <mxGeometry relative="1" as="geometry" />
        </mxCell>
        <mxCell id="1QPHesBKEYhvxCualvM5-227" style="edgeStyle=orthogonalEdgeStyle;rounded=0;orthogonalLoop=1;jettySize=auto;html=1;endArrow=open;endFill=0;endSize=22;dashed=1;dashPattern=12 12;" edge="1" parent="WIyWlLk6GJQsqaUBKTNV-1" source="1QPHesBKEYhvxCualvM5-59" target="1QPHesBKEYhvxCualvM5-15">
          <mxGeometry relative="1" as="geometry">
            <mxPoint x="1650" y="50" as="sourcePoint" />
            <Array as="points">
              <mxPoint x="1720" y="80" />
              <mxPoint x="1720" />
              <mxPoint x="2000" />
              <mxPoint x="2000" y="200" />
            </Array>
          </mxGeometry>
        </mxCell>
        <mxCell id="1QPHesBKEYhvxCualvM5-58" value="&lt;b&gt;SellerElement&lt;/b&gt;" style="swimlane;fontStyle=1;align=center;verticalAlign=top;childLayout=stackLayout;horizontal=1;startSize=26;horizontalStack=0;resizeParent=1;resizeParentMax=0;resizeLast=0;collapsible=1;marginBottom=0;whiteSpace=wrap;html=1;" vertex="1" parent="WIyWlLk6GJQsqaUBKTNV-1">
          <mxGeometry x="1360" y="-10" width="240" height="260" as="geometry" />
        </mxCell>
        <mxCell id="1QPHesBKEYhvxCualvM5-59" value="&lt;p style=&quot;margin: 0px 0px 0px 4px;&quot;&gt;+ seller : Seller&lt;/p&gt;&lt;p style=&quot;margin: 0px 0px 0px 4px;&quot;&gt;- inputPanel : GameObject&lt;/p&gt;&lt;p style=&quot;margin: 0px 0px 0px 4px;&quot;&gt;- outputPanel : GameObject&lt;/p&gt;&lt;p style=&quot;margin: 0px 0px 0px 4px;&quot;&gt;- inputFieldName : TMP_InputField&lt;/p&gt;&lt;p style=&quot;margin: 0px 0px 0px 4px;&quot;&gt;- inputFieldLogin : TMP_InputField&lt;/p&gt;&lt;p style=&quot;margin: 0px 0px 0px 4px;&quot;&gt;- inputFieldRate : TMP_InputField&lt;/p&gt;&lt;p style=&quot;margin: 0px 0px 0px 4px;&quot;&gt;- textLogin : TMP_Text&lt;/p&gt;&lt;p style=&quot;margin: 0px 0px 0px 4px;&quot;&gt;- textName : TMP_Text&lt;/p&gt;&lt;p style=&quot;margin: 0px 0px 0px 4px;&quot;&gt;- textRate : TMP_Text&lt;/p&gt;" style="text;strokeColor=none;fillColor=none;align=left;verticalAlign=top;spacingLeft=4;spacingRight=4;overflow=hidden;rotatable=0;points=[[0,0.5],[1,0.5]];portConstraint=eastwest;whiteSpace=wrap;html=1;" vertex="1" parent="1QPHesBKEYhvxCualvM5-58">
          <mxGeometry y="26" width="240" height="144" as="geometry" />
        </mxCell>
        <mxCell id="1QPHesBKEYhvxCualvM5-60" value="" style="line;strokeWidth=1;fillColor=none;align=left;verticalAlign=middle;spacingTop=-1;spacingLeft=3;spacingRight=3;rotatable=0;labelPosition=right;points=[];portConstraint=eastwest;strokeColor=inherit;" vertex="1" parent="1QPHesBKEYhvxCualvM5-58">
          <mxGeometry y="170" width="240" height="8" as="geometry" />
        </mxCell>
        <mxCell id="1QPHesBKEYhvxCualvM5-61" value="&lt;p style=&quot;margin: 0px 0px 0px 4px;&quot;&gt;+ ToggleEditMode(edit :&amp;nbsp;&lt;span style=&quot;background-color: initial;&quot;&gt;bool&lt;/span&gt;&lt;span style=&quot;background-color: initial;&quot;&gt;) : void&lt;/span&gt;&lt;/p&gt;&lt;p style=&quot;margin: 0px 0px 0px 4px;&quot;&gt;+ UpdateTextValues() : void&lt;/p&gt;&lt;p style=&quot;margin: 0px 0px 0px 4px;&quot;&gt;+ FormOutputValue() : string&lt;/p&gt;&lt;p style=&quot;margin: 0px 0px 0px 4px;&quot;&gt;+ SendModifyQuery() : void&lt;/p&gt;&lt;p style=&quot;margin: 0px 0px 0px 4px;&quot;&gt;+ SendDeleteQuery() : void&lt;/p&gt;" style="text;strokeColor=none;fillColor=none;align=left;verticalAlign=top;spacingLeft=4;spacingRight=4;overflow=hidden;rotatable=0;points=[[0,0.5],[1,0.5]];portConstraint=eastwest;whiteSpace=wrap;html=1;" vertex="1" parent="1QPHesBKEYhvxCualvM5-58">
          <mxGeometry y="178" width="240" height="82" as="geometry" />
        </mxCell>
        <mxCell id="1QPHesBKEYhvxCualvM5-220" style="edgeStyle=orthogonalEdgeStyle;rounded=0;orthogonalLoop=1;jettySize=auto;html=1;endArrow=open;endFill=0;endSize=22;dashed=1;dashPattern=12 12;" edge="1" parent="WIyWlLk6GJQsqaUBKTNV-1" source="1QPHesBKEYhvxCualvM5-62" target="1QPHesBKEYhvxCualvM5-15">
          <mxGeometry relative="1" as="geometry">
            <Array as="points">
              <mxPoint x="1720" y="-80" />
              <mxPoint x="1720" />
              <mxPoint x="2000" />
              <mxPoint x="2000" y="200" />
            </Array>
          </mxGeometry>
        </mxCell>
        <mxCell id="1QPHesBKEYhvxCualvM5-62" value="&lt;b&gt;AccountAddElement&lt;/b&gt;" style="swimlane;fontStyle=1;align=center;verticalAlign=top;childLayout=stackLayout;horizontal=1;startSize=26;horizontalStack=0;resizeParent=1;resizeParentMax=0;resizeLast=0;collapsible=1;marginBottom=0;whiteSpace=wrap;html=1;" vertex="1" parent="WIyWlLk6GJQsqaUBKTNV-1">
          <mxGeometry x="1360" y="-160" width="240" height="130" as="geometry" />
        </mxCell>
        <mxCell id="1QPHesBKEYhvxCualvM5-63" value="&lt;p style=&quot;margin: 0px 0px 0px 4px;&quot;&gt;- inputFieldLogin : TMP_InputField&lt;/p&gt;&lt;p style=&quot;margin: 0px 0px 0px 4px;&quot;&gt;- inputFieldPassword : TMP_InputField&lt;/p&gt;&lt;p style=&quot;margin: 0px 0px 0px 4px;&quot;&gt;- inputFieldAdminKey : TMP_InputField&lt;/p&gt;" style="text;strokeColor=none;fillColor=none;align=left;verticalAlign=top;spacingLeft=4;spacingRight=4;overflow=hidden;rotatable=0;points=[[0,0.5],[1,0.5]];portConstraint=eastwest;whiteSpace=wrap;html=1;" vertex="1" parent="1QPHesBKEYhvxCualvM5-62">
          <mxGeometry y="26" width="240" height="54" as="geometry" />
        </mxCell>
        <mxCell id="1QPHesBKEYhvxCualvM5-64" value="" style="line;strokeWidth=1;fillColor=none;align=left;verticalAlign=middle;spacingTop=-1;spacingLeft=3;spacingRight=3;rotatable=0;labelPosition=right;points=[];portConstraint=eastwest;strokeColor=inherit;" vertex="1" parent="1QPHesBKEYhvxCualvM5-62">
          <mxGeometry y="80" width="240" height="8" as="geometry" />
        </mxCell>
        <mxCell id="1QPHesBKEYhvxCualvM5-65" value="&lt;p style=&quot;margin: 0px 0px 0px 4px;&quot;&gt;+ FormOutputValue() : string&lt;/p&gt;&lt;p style=&quot;margin: 0px 0px 0px 4px;&quot;&gt;+ SendAddQuery() : void&lt;/p&gt;" style="text;strokeColor=none;fillColor=none;align=left;verticalAlign=top;spacingLeft=4;spacingRight=4;overflow=hidden;rotatable=0;points=[[0,0.5],[1,0.5]];portConstraint=eastwest;whiteSpace=wrap;html=1;" vertex="1" parent="1QPHesBKEYhvxCualvM5-62">
          <mxGeometry y="88" width="240" height="42" as="geometry" />
        </mxCell>
        <mxCell id="1QPHesBKEYhvxCualvM5-154" style="edgeStyle=orthogonalEdgeStyle;rounded=0;orthogonalLoop=1;jettySize=auto;html=1;endArrow=block;endFill=0;endSize=22;jumpStyle=arc;jumpSize=10;" edge="1" parent="WIyWlLk6GJQsqaUBKTNV-1" source="1QPHesBKEYhvxCualvM5-66" target="1QPHesBKEYhvxCualvM5-24">
          <mxGeometry relative="1" as="geometry">
            <mxPoint x="1840" y="440" as="targetPoint" />
          </mxGeometry>
        </mxCell>
        <mxCell id="1QPHesBKEYhvxCualvM5-228" style="edgeStyle=orthogonalEdgeStyle;rounded=0;orthogonalLoop=1;jettySize=auto;html=1;endArrow=open;endFill=0;endSize=22;dashed=1;dashPattern=12 12;" edge="1" parent="WIyWlLk6GJQsqaUBKTNV-1" source="1QPHesBKEYhvxCualvM5-66" target="1QPHesBKEYhvxCualvM5-15">
          <mxGeometry relative="1" as="geometry">
            <Array as="points">
              <mxPoint x="2040" y="-420" />
              <mxPoint x="2040" y="170" />
            </Array>
          </mxGeometry>
        </mxCell>
        <mxCell id="1QPHesBKEYhvxCualvM5-66" value="&lt;b&gt;Account&lt;/b&gt;&lt;b style=&quot;background-color: initial;&quot;&gt;Element&lt;/b&gt;" style="swimlane;fontStyle=1;align=center;verticalAlign=top;childLayout=stackLayout;horizontal=1;startSize=26;horizontalStack=0;resizeParent=1;resizeParentMax=0;resizeLast=0;collapsible=1;marginBottom=0;whiteSpace=wrap;html=1;" vertex="1" parent="WIyWlLk6GJQsqaUBKTNV-1">
          <mxGeometry x="1360" y="-450" width="240" height="270" as="geometry" />
        </mxCell>
        <mxCell id="1QPHesBKEYhvxCualvM5-67" value="&lt;p style=&quot;margin: 0px 0px 0px 4px;&quot;&gt;+ account : Account&lt;/p&gt;&lt;p style=&quot;margin: 0px 0px 0px 4px;&quot;&gt;- inputPanel : GameObject&lt;/p&gt;&lt;p style=&quot;margin: 0px 0px 0px 4px;&quot;&gt;- outputPanel : GameObject&lt;/p&gt;&lt;p style=&quot;margin: 0px 0px 0px 4px;&quot;&gt;- inputFieldLogin : TMP_InputField&lt;/p&gt;&lt;p style=&quot;margin: 0px 0px 0px 4px;&quot;&gt;- inputFieldPassword : TMP_InputField&lt;/p&gt;&lt;p style=&quot;margin: 0px 0px 0px 4px;&quot;&gt;- inputFieldAdminKey : TMP_InputField&lt;/p&gt;&lt;p style=&quot;margin: 0px 0px 0px 4px;&quot;&gt;- textLogin : TMP_Text&lt;/p&gt;&lt;p style=&quot;margin: 0px 0px 0px 4px;&quot;&gt;- textPassword : TMP_Text&lt;/p&gt;&lt;p style=&quot;margin: 0px 0px 0px 4px;&quot;&gt;- textAdminKey : TMP_Text&lt;/p&gt;" style="text;strokeColor=none;fillColor=none;align=left;verticalAlign=top;spacingLeft=4;spacingRight=4;overflow=hidden;rotatable=0;points=[[0,0.5],[1,0.5]];portConstraint=eastwest;whiteSpace=wrap;html=1;" vertex="1" parent="1QPHesBKEYhvxCualvM5-66">
          <mxGeometry y="26" width="240" height="144" as="geometry" />
        </mxCell>
        <mxCell id="1QPHesBKEYhvxCualvM5-68" value="" style="line;strokeWidth=1;fillColor=none;align=left;verticalAlign=middle;spacingTop=-1;spacingLeft=3;spacingRight=3;rotatable=0;labelPosition=right;points=[];portConstraint=eastwest;strokeColor=inherit;" vertex="1" parent="1QPHesBKEYhvxCualvM5-66">
          <mxGeometry y="170" width="240" height="8" as="geometry" />
        </mxCell>
        <mxCell id="1QPHesBKEYhvxCualvM5-69" value="&lt;p style=&quot;margin: 0px 0px 0px 4px;&quot;&gt;+ ToggleEditMode(edit :&amp;nbsp;&lt;span style=&quot;background-color: initial;&quot;&gt;bool&lt;/span&gt;&lt;span style=&quot;background-color: initial;&quot;&gt;) : void&lt;/span&gt;&lt;/p&gt;&lt;p style=&quot;margin: 0px 0px 0px 4px;&quot;&gt;+ UpdateTextValues() : void&lt;/p&gt;&lt;p style=&quot;margin: 0px 0px 0px 4px;&quot;&gt;+ FormOutputValue() : string&lt;/p&gt;&lt;p style=&quot;margin: 0px 0px 0px 4px;&quot;&gt;+ SendModifyQuery() : void&lt;/p&gt;&lt;p style=&quot;margin: 0px 0px 0px 4px;&quot;&gt;+ SendDeleteQuery() : void&lt;/p&gt;" style="text;strokeColor=none;fillColor=none;align=left;verticalAlign=top;spacingLeft=4;spacingRight=4;overflow=hidden;rotatable=0;points=[[0,0.5],[1,0.5]];portConstraint=eastwest;whiteSpace=wrap;html=1;" vertex="1" parent="1QPHesBKEYhvxCualvM5-66">
          <mxGeometry y="178" width="240" height="92" as="geometry" />
        </mxCell>
        <mxCell id="1QPHesBKEYhvxCualvM5-153" style="edgeStyle=orthogonalEdgeStyle;rounded=0;orthogonalLoop=1;jettySize=auto;html=1;endArrow=block;endFill=0;endSize=22;jumpStyle=arc;jumpSize=10;" edge="1" parent="WIyWlLk6GJQsqaUBKTNV-1" source="1QPHesBKEYhvxCualvM5-70" target="1QPHesBKEYhvxCualvM5-24">
          <mxGeometry relative="1" as="geometry" />
        </mxCell>
        <mxCell id="1QPHesBKEYhvxCualvM5-229" style="edgeStyle=orthogonalEdgeStyle;rounded=0;orthogonalLoop=1;jettySize=auto;html=1;endArrow=open;endFill=0;endSize=22;dashed=1;dashPattern=12 12;" edge="1" parent="WIyWlLk6GJQsqaUBKTNV-1" source="1QPHesBKEYhvxCualvM5-70" target="1QPHesBKEYhvxCualvM5-15">
          <mxGeometry relative="1" as="geometry">
            <Array as="points">
              <mxPoint x="1770" y="-500" />
              <mxPoint x="1770" y="-420" />
              <mxPoint x="2040" y="-420" />
              <mxPoint x="2040" y="170" />
            </Array>
          </mxGeometry>
        </mxCell>
        <mxCell id="1QPHesBKEYhvxCualvM5-70" value="&lt;b&gt;AdminKeyAddElement&lt;/b&gt;" style="swimlane;fontStyle=1;align=center;verticalAlign=top;childLayout=stackLayout;horizontal=1;startSize=26;horizontalStack=0;resizeParent=1;resizeParentMax=0;resizeLast=0;collapsible=1;marginBottom=0;whiteSpace=wrap;html=1;" vertex="1" parent="WIyWlLk6GJQsqaUBKTNV-1">
          <mxGeometry x="1360" y="-570" width="240" height="100" as="geometry" />
        </mxCell>
        <mxCell id="1QPHesBKEYhvxCualvM5-71" value="&lt;p style=&quot;margin: 0px 0px 0px 4px;&quot;&gt;- inputFieldAdminKey : TMP_InputField&lt;br&gt;&lt;/p&gt;" style="text;strokeColor=none;fillColor=none;align=left;verticalAlign=top;spacingLeft=4;spacingRight=4;overflow=hidden;rotatable=0;points=[[0,0.5],[1,0.5]];portConstraint=eastwest;whiteSpace=wrap;html=1;" vertex="1" parent="1QPHesBKEYhvxCualvM5-70">
          <mxGeometry y="26" width="240" height="24" as="geometry" />
        </mxCell>
        <mxCell id="1QPHesBKEYhvxCualvM5-72" value="" style="line;strokeWidth=1;fillColor=none;align=left;verticalAlign=middle;spacingTop=-1;spacingLeft=3;spacingRight=3;rotatable=0;labelPosition=right;points=[];portConstraint=eastwest;strokeColor=inherit;" vertex="1" parent="1QPHesBKEYhvxCualvM5-70">
          <mxGeometry y="50" width="240" height="8" as="geometry" />
        </mxCell>
        <mxCell id="1QPHesBKEYhvxCualvM5-73" value="&lt;p style=&quot;margin: 0px 0px 0px 4px;&quot;&gt;+ FormOutputValue() : string&lt;/p&gt;&lt;p style=&quot;margin: 0px 0px 0px 4px;&quot;&gt;+ SendAddQuery() : void&lt;/p&gt;" style="text;strokeColor=none;fillColor=none;align=left;verticalAlign=top;spacingLeft=4;spacingRight=4;overflow=hidden;rotatable=0;points=[[0,0.5],[1,0.5]];portConstraint=eastwest;whiteSpace=wrap;html=1;" vertex="1" parent="1QPHesBKEYhvxCualvM5-70">
          <mxGeometry y="58" width="240" height="42" as="geometry" />
        </mxCell>
        <mxCell id="1QPHesBKEYhvxCualvM5-152" style="edgeStyle=orthogonalEdgeStyle;rounded=0;orthogonalLoop=1;jettySize=auto;html=1;endArrow=block;endFill=0;endSize=22;jumpStyle=arc;jumpSize=10;" edge="1" parent="WIyWlLk6GJQsqaUBKTNV-1" source="1QPHesBKEYhvxCualvM5-74" target="1QPHesBKEYhvxCualvM5-24">
          <mxGeometry relative="1" as="geometry" />
        </mxCell>
        <mxCell id="1QPHesBKEYhvxCualvM5-230" style="edgeStyle=orthogonalEdgeStyle;rounded=0;orthogonalLoop=1;jettySize=auto;html=1;endArrow=open;endFill=0;endSize=22;dashed=1;dashPattern=12 12;" edge="1" parent="WIyWlLk6GJQsqaUBKTNV-1" source="1QPHesBKEYhvxCualvM5-74" target="1QPHesBKEYhvxCualvM5-15">
          <mxGeometry relative="1" as="geometry">
            <Array as="points">
              <mxPoint x="2080" y="-740" />
              <mxPoint x="2080" y="140" />
            </Array>
          </mxGeometry>
        </mxCell>
        <mxCell id="1QPHesBKEYhvxCualvM5-74" value="AdminKeyElement" style="swimlane;fontStyle=1;align=center;verticalAlign=top;childLayout=stackLayout;horizontal=1;startSize=26;horizontalStack=0;resizeParent=1;resizeParentMax=0;resizeLast=0;collapsible=1;marginBottom=0;whiteSpace=wrap;html=1;" vertex="1" parent="WIyWlLk6GJQsqaUBKTNV-1">
          <mxGeometry x="1360" y="-800" width="240" height="210" as="geometry" />
        </mxCell>
        <mxCell id="1QPHesBKEYhvxCualvM5-75" value="&lt;p style=&quot;margin: 0px 0px 0px 4px;&quot;&gt;+ adminKey : AdminKey&lt;/p&gt;&lt;p style=&quot;margin: 0px 0px 0px 4px;&quot;&gt;- inputPanel : GameObject&lt;/p&gt;&lt;p style=&quot;margin: 0px 0px 0px 4px;&quot;&gt;- outputPanel : GameObject&lt;/p&gt;&lt;p style=&quot;margin: 0px 0px 0px 4px;&quot;&gt;- inputFieldAdminKey : TMP_InputField&lt;/p&gt;&lt;p style=&quot;margin: 0px 0px 0px 4px;&quot;&gt;- textAdminKey : TMP_Text&lt;/p&gt;" style="text;strokeColor=none;fillColor=none;align=left;verticalAlign=top;spacingLeft=4;spacingRight=4;overflow=hidden;rotatable=0;points=[[0,0.5],[1,0.5]];portConstraint=eastwest;whiteSpace=wrap;html=1;" vertex="1" parent="1QPHesBKEYhvxCualvM5-74">
          <mxGeometry y="26" width="240" height="84" as="geometry" />
        </mxCell>
        <mxCell id="1QPHesBKEYhvxCualvM5-76" value="" style="line;strokeWidth=1;fillColor=none;align=left;verticalAlign=middle;spacingTop=-1;spacingLeft=3;spacingRight=3;rotatable=0;labelPosition=right;points=[];portConstraint=eastwest;strokeColor=inherit;" vertex="1" parent="1QPHesBKEYhvxCualvM5-74">
          <mxGeometry y="110" width="240" height="8" as="geometry" />
        </mxCell>
        <mxCell id="1QPHesBKEYhvxCualvM5-77" value="&lt;p style=&quot;margin: 0px 0px 0px 4px;&quot;&gt;+ ToggleEditMode(edit :&amp;nbsp;&lt;span style=&quot;background-color: initial;&quot;&gt;bool&lt;/span&gt;&lt;span style=&quot;background-color: initial;&quot;&gt;) : void&lt;/span&gt;&lt;/p&gt;&lt;p style=&quot;margin: 0px 0px 0px 4px;&quot;&gt;+ UpdateTextValues() : void&lt;/p&gt;&lt;p style=&quot;margin: 0px 0px 0px 4px;&quot;&gt;+ FormOutputValue() : string&lt;/p&gt;&lt;p style=&quot;margin: 0px 0px 0px 4px;&quot;&gt;+ SendModifyQuery() : void&lt;/p&gt;&lt;p style=&quot;margin: 0px 0px 0px 4px;&quot;&gt;+ SendDeleteQuery() : void&lt;/p&gt;" style="text;strokeColor=none;fillColor=none;align=left;verticalAlign=top;spacingLeft=4;spacingRight=4;overflow=hidden;rotatable=0;points=[[0,0.5],[1,0.5]];portConstraint=eastwest;whiteSpace=wrap;html=1;" vertex="1" parent="1QPHesBKEYhvxCualvM5-74">
          <mxGeometry y="118" width="240" height="92" as="geometry" />
        </mxCell>
        <mxCell id="1QPHesBKEYhvxCualvM5-248" style="edgeStyle=orthogonalEdgeStyle;rounded=0;orthogonalLoop=1;jettySize=auto;html=1;endArrow=open;endFill=0;endSize=22;dashed=1;dashPattern=12 12;" edge="1" parent="WIyWlLk6GJQsqaUBKTNV-1" source="1QPHesBKEYhvxCualvM5-78" target="1QPHesBKEYhvxCualvM5-15">
          <mxGeometry relative="1" as="geometry">
            <Array as="points">
              <mxPoint x="3090" y="40" />
            </Array>
          </mxGeometry>
        </mxCell>
        <mxCell id="1QPHesBKEYhvxCualvM5-78" value="&lt;b&gt;Panel&lt;/b&gt;" style="swimlane;fontStyle=1;align=center;verticalAlign=top;childLayout=stackLayout;horizontal=1;startSize=26;horizontalStack=0;resizeParent=1;resizeParentMax=0;resizeLast=0;collapsible=1;marginBottom=0;whiteSpace=wrap;html=1;" vertex="1" parent="WIyWlLk6GJQsqaUBKTNV-1">
          <mxGeometry x="3050" y="181" width="170" height="180" as="geometry" />
        </mxCell>
        <mxCell id="1QPHesBKEYhvxCualvM5-79" value="&lt;p style=&quot;margin: 0px 0px 0px 4px;&quot;&gt;# _sliding : UISliding&lt;/p&gt;&lt;p style=&quot;margin: 0px 0px 0px 4px;&quot;&gt;# _hidden : bool&lt;/p&gt;&lt;p style=&quot;margin: 0px 0px 0px 4px;&quot;&gt;+ Hidden : bool&lt;/p&gt;" style="text;strokeColor=none;fillColor=none;align=left;verticalAlign=top;spacingLeft=4;spacingRight=4;overflow=hidden;rotatable=0;points=[[0,0.5],[1,0.5]];portConstraint=eastwest;whiteSpace=wrap;html=1;" vertex="1" parent="1QPHesBKEYhvxCualvM5-78">
          <mxGeometry y="26" width="170" height="54" as="geometry" />
        </mxCell>
        <mxCell id="1QPHesBKEYhvxCualvM5-80" value="" style="line;strokeWidth=1;fillColor=none;align=left;verticalAlign=middle;spacingTop=-1;spacingLeft=3;spacingRight=3;rotatable=0;labelPosition=right;points=[];portConstraint=eastwest;strokeColor=inherit;" vertex="1" parent="1QPHesBKEYhvxCualvM5-78">
          <mxGeometry y="80" width="170" height="8" as="geometry" />
        </mxCell>
        <mxCell id="1QPHesBKEYhvxCualvM5-81" value="&lt;p style=&quot;margin: 0px 0px 0px 4px;&quot;&gt;- Start() : void&lt;/p&gt;&lt;p style=&quot;margin: 0px 0px 0px 4px;&quot;&gt;+ Show() : void&lt;/p&gt;&lt;p style=&quot;margin: 0px 0px 0px 4px;&quot;&gt;+ Hide() : void&lt;/p&gt;&lt;p style=&quot;margin: 0px 0px 0px 4px;&quot;&gt;+ Toggle(bool show) : void&lt;/p&gt;&lt;p style=&quot;margin: 0px 0px 0px 4px;&quot;&gt;+ Toggle() : void&lt;/p&gt;" style="text;strokeColor=none;fillColor=none;align=left;verticalAlign=top;spacingLeft=4;spacingRight=4;overflow=hidden;rotatable=0;points=[[0,0.5],[1,0.5]];portConstraint=eastwest;whiteSpace=wrap;html=1;" vertex="1" parent="1QPHesBKEYhvxCualvM5-78">
          <mxGeometry y="88" width="170" height="92" as="geometry" />
        </mxCell>
        <mxCell id="1QPHesBKEYhvxCualvM5-171" style="edgeStyle=orthogonalEdgeStyle;rounded=0;orthogonalLoop=1;jettySize=auto;html=1;endArrow=block;endFill=0;endSize=22;jumpStyle=arc;" edge="1" parent="WIyWlLk6GJQsqaUBKTNV-1" source="1QPHesBKEYhvxCualvM5-82" target="1QPHesBKEYhvxCualvM5-78">
          <mxGeometry relative="1" as="geometry" />
        </mxCell>
        <mxCell id="1QPHesBKEYhvxCualvM5-219" style="edgeStyle=orthogonalEdgeStyle;rounded=0;orthogonalLoop=1;jettySize=auto;html=1;endArrow=open;endFill=0;dashed=1;dashPattern=12 12;endSize=22;" edge="1" parent="WIyWlLk6GJQsqaUBKTNV-1" source="1QPHesBKEYhvxCualvM5-82" target="1QPHesBKEYhvxCualvM5-5">
          <mxGeometry relative="1" as="geometry">
            <Array as="points">
              <mxPoint x="3650" y="780" />
              <mxPoint x="3650" y="1475" />
            </Array>
          </mxGeometry>
        </mxCell>
        <mxCell id="1QPHesBKEYhvxCualvM5-252" style="edgeStyle=orthogonalEdgeStyle;rounded=0;orthogonalLoop=1;jettySize=auto;html=1;dashed=1;dashPattern=12 12;endArrow=open;endFill=0;endSize=22;" edge="1" parent="WIyWlLk6GJQsqaUBKTNV-1" source="1QPHesBKEYhvxCualvM5-82" target="1QPHesBKEYhvxCualvM5-15">
          <mxGeometry relative="1" as="geometry">
            <Array as="points">
              <mxPoint x="3200" y="700" />
              <mxPoint x="3200" y="600" />
            </Array>
          </mxGeometry>
        </mxCell>
        <mxCell id="1QPHesBKEYhvxCualvM5-82" value="&lt;b&gt;AccountPanel&lt;/b&gt;" style="swimlane;fontStyle=1;align=center;verticalAlign=top;childLayout=stackLayout;horizontal=1;startSize=26;horizontalStack=0;resizeParent=1;resizeParentMax=0;resizeLast=0;collapsible=1;marginBottom=0;whiteSpace=wrap;html=1;" vertex="1" parent="WIyWlLk6GJQsqaUBKTNV-1">
          <mxGeometry x="3280" y="670" width="240" height="190" as="geometry" />
        </mxCell>
        <mxCell id="1QPHesBKEYhvxCualvM5-83" value="&lt;p style=&quot;margin: 0px 0px 0px 4px;&quot;&gt;- inputFieldLogin : TMP_InputField&lt;/p&gt;&lt;p style=&quot;margin: 0px 0px 0px 4px;&quot;&gt;- inputFieldPassword : TMP_InputField&lt;/p&gt;&lt;p style=&quot;margin: 0px 0px 0px 4px;&quot;&gt;- login : TMP_Text&lt;/p&gt;&lt;p style=&quot;margin: 0px 0px 0px 4px;&quot;&gt;- admin : TMP_Text&lt;/p&gt;" style="text;strokeColor=none;fillColor=none;align=left;verticalAlign=top;spacingLeft=4;spacingRight=4;overflow=hidden;rotatable=0;points=[[0,0.5],[1,0.5]];portConstraint=eastwest;whiteSpace=wrap;html=1;" vertex="1" parent="1QPHesBKEYhvxCualvM5-82">
          <mxGeometry y="26" width="240" height="64" as="geometry" />
        </mxCell>
        <mxCell id="1QPHesBKEYhvxCualvM5-84" value="" style="line;strokeWidth=1;fillColor=none;align=left;verticalAlign=middle;spacingTop=-1;spacingLeft=3;spacingRight=3;rotatable=0;labelPosition=right;points=[];portConstraint=eastwest;strokeColor=inherit;" vertex="1" parent="1QPHesBKEYhvxCualvM5-82">
          <mxGeometry y="90" width="240" height="8" as="geometry" />
        </mxCell>
        <mxCell id="1QPHesBKEYhvxCualvM5-85" value="&lt;p style=&quot;margin: 0px 0px 0px 4px;&quot;&gt;+ SendModifyRequest() : void&lt;/p&gt;&lt;p style=&quot;margin: 0px 0px 0px 4px;&quot;&gt;+ Show() : void&lt;/p&gt;&lt;p style=&quot;margin: 0px 0px 0px 4px;&quot;&gt;+ Toggle(bool show) : void&lt;/p&gt;&lt;p style=&quot;margin: 0px 0px 0px 4px;&quot;&gt;+ Toggle() : void&lt;/p&gt;&lt;p style=&quot;margin: 0px 0px 0px 4px;&quot;&gt;+ Clear() : void&lt;/p&gt;" style="text;strokeColor=none;fillColor=none;align=left;verticalAlign=top;spacingLeft=4;spacingRight=4;overflow=hidden;rotatable=0;points=[[0,0.5],[1,0.5]];portConstraint=eastwest;whiteSpace=wrap;html=1;" vertex="1" parent="1QPHesBKEYhvxCualvM5-82">
          <mxGeometry y="98" width="240" height="92" as="geometry" />
        </mxCell>
        <mxCell id="1QPHesBKEYhvxCualvM5-172" style="edgeStyle=orthogonalEdgeStyle;rounded=0;orthogonalLoop=1;jettySize=auto;html=1;endArrow=block;endFill=0;endSize=22;jumpStyle=arc;" edge="1" parent="WIyWlLk6GJQsqaUBKTNV-1" source="1QPHesBKEYhvxCualvM5-86" target="1QPHesBKEYhvxCualvM5-78">
          <mxGeometry relative="1" as="geometry" />
        </mxCell>
        <mxCell id="1QPHesBKEYhvxCualvM5-86" value="&lt;b&gt;AdminPanel&lt;/b&gt;" style="swimlane;fontStyle=1;align=center;verticalAlign=top;childLayout=stackLayout;horizontal=1;startSize=26;horizontalStack=0;resizeParent=1;resizeParentMax=0;resizeLast=0;collapsible=1;marginBottom=0;whiteSpace=wrap;html=1;" vertex="1" parent="WIyWlLk6GJQsqaUBKTNV-1">
          <mxGeometry x="3280" y="-470" width="240" height="150" as="geometry" />
        </mxCell>
        <mxCell id="1QPHesBKEYhvxCualvM5-87" value="&lt;p style=&quot;margin: 0px 0px 0px 4px;&quot;&gt;+ verticalContainer : VerticalContainer&lt;br&gt;&lt;/p&gt;" style="text;strokeColor=none;fillColor=none;align=left;verticalAlign=top;spacingLeft=4;spacingRight=4;overflow=hidden;rotatable=0;points=[[0,0.5],[1,0.5]];portConstraint=eastwest;whiteSpace=wrap;html=1;" vertex="1" parent="1QPHesBKEYhvxCualvM5-86">
          <mxGeometry y="26" width="240" height="24" as="geometry" />
        </mxCell>
        <mxCell id="1QPHesBKEYhvxCualvM5-88" value="" style="line;strokeWidth=1;fillColor=none;align=left;verticalAlign=middle;spacingTop=-1;spacingLeft=3;spacingRight=3;rotatable=0;labelPosition=right;points=[];portConstraint=eastwest;strokeColor=inherit;" vertex="1" parent="1QPHesBKEYhvxCualvM5-86">
          <mxGeometry y="50" width="240" height="8" as="geometry" />
        </mxCell>
        <mxCell id="1QPHesBKEYhvxCualvM5-89" value="&lt;p style=&quot;margin: 0px 0px 0px 4px;&quot;&gt;+ SendModifyRequest() : void&lt;/p&gt;&lt;p style=&quot;margin: 0px 0px 0px 4px;&quot;&gt;+ Show() : void&lt;/p&gt;&lt;p style=&quot;margin: 0px 0px 0px 4px;&quot;&gt;+ Toggle(bool show) : void&lt;/p&gt;&lt;p style=&quot;margin: 0px 0px 0px 4px;&quot;&gt;+ Toggle() : void&lt;/p&gt;&lt;p style=&quot;margin: 0px 0px 0px 4px;&quot;&gt;+ Clear() : void&lt;/p&gt;" style="text;strokeColor=none;fillColor=none;align=left;verticalAlign=top;spacingLeft=4;spacingRight=4;overflow=hidden;rotatable=0;points=[[0,0.5],[1,0.5]];portConstraint=eastwest;whiteSpace=wrap;html=1;" vertex="1" parent="1QPHesBKEYhvxCualvM5-86">
          <mxGeometry y="58" width="240" height="92" as="geometry" />
        </mxCell>
        <mxCell id="1QPHesBKEYhvxCualvM5-173" style="edgeStyle=orthogonalEdgeStyle;rounded=0;orthogonalLoop=1;jettySize=auto;html=1;endArrow=block;endFill=0;endSize=22;jumpStyle=arc;" edge="1" parent="WIyWlLk6GJQsqaUBKTNV-1" source="1QPHesBKEYhvxCualvM5-90" target="1QPHesBKEYhvxCualvM5-78">
          <mxGeometry relative="1" as="geometry" />
        </mxCell>
        <mxCell id="1QPHesBKEYhvxCualvM5-253" style="edgeStyle=orthogonalEdgeStyle;rounded=0;orthogonalLoop=1;jettySize=auto;html=1;dashed=1;dashPattern=12 12;endArrow=open;endFill=0;endSize=22;" edge="1" parent="WIyWlLk6GJQsqaUBKTNV-1" source="1QPHesBKEYhvxCualvM5-90" target="1QPHesBKEYhvxCualvM5-15">
          <mxGeometry relative="1" as="geometry">
            <Array as="points">
              <mxPoint x="3200" y="530" />
              <mxPoint x="3200" y="600" />
            </Array>
          </mxGeometry>
        </mxCell>
        <mxCell id="1QPHesBKEYhvxCualvM5-90" value="&lt;b&gt;AuthorisationPanel&lt;/b&gt;" style="swimlane;fontStyle=1;align=center;verticalAlign=top;childLayout=stackLayout;horizontal=1;startSize=26;horizontalStack=0;resizeParent=1;resizeParentMax=0;resizeLast=0;collapsible=1;marginBottom=0;whiteSpace=wrap;html=1;" vertex="1" parent="WIyWlLk6GJQsqaUBKTNV-1">
          <mxGeometry x="3290" y="384" width="240" height="260" as="geometry" />
        </mxCell>
        <mxCell id="1QPHesBKEYhvxCualvM5-91" value="&lt;p style=&quot;margin: 0px 0px 0px 4px;&quot;&gt;inputFieldLoginReg : TMP_InputField&lt;/p&gt;&lt;p style=&quot;margin: 0px 0px 0px 4px;&quot;&gt;inputFieldPasswordReg : TMP_InputField&lt;/p&gt;&lt;p style=&quot;margin: 0px 0px 0px 4px;&quot;&gt;inputFieldAdminKey : TMP_InputField&lt;/p&gt;&lt;p style=&quot;margin: 0px 0px 0px 4px;&quot;&gt;inputFieldLogin : TMP_InputField&lt;/p&gt;&lt;p style=&quot;margin: 0px 0px 0px 4px;&quot;&gt;inputFieldPassword : TMP_InputField&lt;/p&gt;" style="text;strokeColor=none;fillColor=none;align=left;verticalAlign=top;spacingLeft=4;spacingRight=4;overflow=hidden;rotatable=0;points=[[0,0.5],[1,0.5]];portConstraint=eastwest;whiteSpace=wrap;html=1;" vertex="1" parent="1QPHesBKEYhvxCualvM5-90">
          <mxGeometry y="26" width="240" height="84" as="geometry" />
        </mxCell>
        <mxCell id="1QPHesBKEYhvxCualvM5-92" value="" style="line;strokeWidth=1;fillColor=none;align=left;verticalAlign=middle;spacingTop=-1;spacingLeft=3;spacingRight=3;rotatable=0;labelPosition=right;points=[];portConstraint=eastwest;strokeColor=inherit;" vertex="1" parent="1QPHesBKEYhvxCualvM5-90">
          <mxGeometry y="110" width="240" height="8" as="geometry" />
        </mxCell>
        <mxCell id="1QPHesBKEYhvxCualvM5-93" value="&lt;p style=&quot;margin: 0px 0px 0px 4px;&quot;&gt;+ ShowLogin() : void&lt;/p&gt;&lt;p style=&quot;margin: 0px 0px 0px 4px;&quot;&gt;+ ShowRegister() : void&lt;/p&gt;&lt;p style=&quot;margin: 0px 0px 0px 4px;&quot;&gt;+ Hide() : void&lt;/p&gt;&lt;p style=&quot;margin: 0px 0px 0px 4px;&quot;&gt;+ SendLoginQuery() : void&lt;/p&gt;&lt;p style=&quot;margin: 0px 0px 0px 4px;&quot;&gt;+ SendRegisterQuery() : void&lt;/p&gt;&lt;p style=&quot;margin: 0px 0px 0px 4px;&quot;&gt;+ Show() : void&lt;/p&gt;&lt;p style=&quot;margin: 0px 0px 0px 4px;&quot;&gt;+ Toggle(bool show) : void&lt;/p&gt;&lt;p style=&quot;margin: 0px 0px 0px 4px;&quot;&gt;+ Toggle() : void&lt;/p&gt;&lt;p style=&quot;margin: 0px 0px 0px 4px;&quot;&gt;+ Clear() : void&lt;/p&gt;" style="text;strokeColor=none;fillColor=none;align=left;verticalAlign=top;spacingLeft=4;spacingRight=4;overflow=hidden;rotatable=0;points=[[0,0.5],[1,0.5]];portConstraint=eastwest;whiteSpace=wrap;html=1;" vertex="1" parent="1QPHesBKEYhvxCualvM5-90">
          <mxGeometry y="118" width="240" height="142" as="geometry" />
        </mxCell>
        <mxCell id="1QPHesBKEYhvxCualvM5-170" style="edgeStyle=orthogonalEdgeStyle;rounded=0;orthogonalLoop=1;jettySize=auto;html=1;endArrow=block;endFill=0;endSize=22;jumpStyle=arc;" edge="1" parent="WIyWlLk6GJQsqaUBKTNV-1" source="1QPHesBKEYhvxCualvM5-94" target="1QPHesBKEYhvxCualvM5-78">
          <mxGeometry relative="1" as="geometry" />
        </mxCell>
        <mxCell id="1QPHesBKEYhvxCualvM5-94" value="&lt;b&gt;ControlPanel&lt;/b&gt;" style="swimlane;fontStyle=1;align=center;verticalAlign=top;childLayout=stackLayout;horizontal=1;startSize=26;horizontalStack=0;resizeParent=1;resizeParentMax=0;resizeLast=0;collapsible=1;marginBottom=0;whiteSpace=wrap;html=1;" vertex="1" parent="WIyWlLk6GJQsqaUBKTNV-1">
          <mxGeometry x="3280" y="196" width="240" height="150" as="geometry" />
        </mxCell>
        <mxCell id="1QPHesBKEYhvxCualvM5-95" value="&lt;p style=&quot;margin: 0px 0px 0px 4px;&quot;&gt;- adminMenu : GameObject&lt;/p&gt;&lt;p style=&quot;margin: 0px 0px 0px 4px;&quot;&gt;- sellerMenu : GameObject&lt;/p&gt;&lt;p style=&quot;margin: 0px 0px 0px 4px;&quot;&gt;- accountMenu : GameObject&lt;/p&gt;" style="text;strokeColor=none;fillColor=none;align=left;verticalAlign=top;spacingLeft=4;spacingRight=4;overflow=hidden;rotatable=0;points=[[0,0.5],[1,0.5]];portConstraint=eastwest;whiteSpace=wrap;html=1;" vertex="1" parent="1QPHesBKEYhvxCualvM5-94">
          <mxGeometry y="26" width="240" height="54" as="geometry" />
        </mxCell>
        <mxCell id="1QPHesBKEYhvxCualvM5-96" value="" style="line;strokeWidth=1;fillColor=none;align=left;verticalAlign=middle;spacingTop=-1;spacingLeft=3;spacingRight=3;rotatable=0;labelPosition=right;points=[];portConstraint=eastwest;strokeColor=inherit;" vertex="1" parent="1QPHesBKEYhvxCualvM5-94">
          <mxGeometry y="80" width="240" height="8" as="geometry" />
        </mxCell>
        <mxCell id="1QPHesBKEYhvxCualvM5-97" value="&lt;p style=&quot;margin: 0px 0px 0px 4px;&quot;&gt;+ ToggleAdminMenu(bool show) : void&lt;/p&gt;&lt;p style=&quot;margin: 0px 0px 0px 4px;&quot;&gt;+ ToggleSellerMenu(bool show) : void&lt;/p&gt;&lt;p style=&quot;margin: 0px 0px 0px 4px;&quot;&gt;+ ToggleAccountMenu(bool show) : void&lt;/p&gt;" style="text;strokeColor=none;fillColor=none;align=left;verticalAlign=top;spacingLeft=4;spacingRight=4;overflow=hidden;rotatable=0;points=[[0,0.5],[1,0.5]];portConstraint=eastwest;whiteSpace=wrap;html=1;" vertex="1" parent="1QPHesBKEYhvxCualvM5-94">
          <mxGeometry y="88" width="240" height="62" as="geometry" />
        </mxCell>
        <mxCell id="1QPHesBKEYhvxCualvM5-169" style="edgeStyle=orthogonalEdgeStyle;rounded=0;orthogonalLoop=1;jettySize=auto;html=1;endArrow=block;endFill=0;endSize=22;jumpStyle=arc;" edge="1" parent="WIyWlLk6GJQsqaUBKTNV-1" source="1QPHesBKEYhvxCualvM5-98" target="1QPHesBKEYhvxCualvM5-78">
          <mxGeometry relative="1" as="geometry" />
        </mxCell>
        <mxCell id="1QPHesBKEYhvxCualvM5-98" value="&lt;b&gt;ExceptionPanel&lt;/b&gt;" style="swimlane;fontStyle=1;align=center;verticalAlign=top;childLayout=stackLayout;horizontal=1;startSize=26;horizontalStack=0;resizeParent=1;resizeParentMax=0;resizeLast=0;collapsible=1;marginBottom=0;whiteSpace=wrap;html=1;" vertex="1" parent="WIyWlLk6GJQsqaUBKTNV-1">
          <mxGeometry x="3280" y="56" width="270" height="120" as="geometry" />
        </mxCell>
        <mxCell id="1QPHesBKEYhvxCualvM5-99" value="&lt;p style=&quot;margin: 0px 0px 0px 4px;&quot;&gt;- _exceptionText : TMP_Text&lt;br&gt;&lt;/p&gt;" style="text;strokeColor=none;fillColor=none;align=left;verticalAlign=top;spacingLeft=4;spacingRight=4;overflow=hidden;rotatable=0;points=[[0,0.5],[1,0.5]];portConstraint=eastwest;whiteSpace=wrap;html=1;" vertex="1" parent="1QPHesBKEYhvxCualvM5-98">
          <mxGeometry y="26" width="270" height="24" as="geometry" />
        </mxCell>
        <mxCell id="1QPHesBKEYhvxCualvM5-100" value="" style="line;strokeWidth=1;fillColor=none;align=left;verticalAlign=middle;spacingTop=-1;spacingLeft=3;spacingRight=3;rotatable=0;labelPosition=right;points=[];portConstraint=eastwest;strokeColor=inherit;" vertex="1" parent="1QPHesBKEYhvxCualvM5-98">
          <mxGeometry y="50" width="270" height="8" as="geometry" />
        </mxCell>
        <mxCell id="1QPHesBKEYhvxCualvM5-101" value="&lt;p style=&quot;margin: 0px 0px 0px 4px;&quot;&gt;+ SetExceptionText(exceptionText :&amp;nbsp;&lt;span style=&quot;background-color: initial;&quot;&gt;string&lt;/span&gt;&lt;span style=&quot;background-color: initial;&quot;&gt;) : void&lt;/span&gt;&lt;/p&gt;&lt;p style=&quot;margin: 0px 0px 0px 4px;&quot;&gt;+ Clear() : void&lt;/p&gt;" style="text;strokeColor=none;fillColor=none;align=left;verticalAlign=top;spacingLeft=4;spacingRight=4;overflow=hidden;rotatable=0;points=[[0,0.5],[1,0.5]];portConstraint=eastwest;whiteSpace=wrap;html=1;" vertex="1" parent="1QPHesBKEYhvxCualvM5-98">
          <mxGeometry y="58" width="270" height="62" as="geometry" />
        </mxCell>
        <mxCell id="1QPHesBKEYhvxCualvM5-168" style="edgeStyle=orthogonalEdgeStyle;rounded=0;orthogonalLoop=1;jettySize=auto;html=1;endArrow=block;endFill=0;endSize=22;jumpStyle=arc;" edge="1" parent="WIyWlLk6GJQsqaUBKTNV-1" source="1QPHesBKEYhvxCualvM5-102" target="1QPHesBKEYhvxCualvM5-78">
          <mxGeometry relative="1" as="geometry">
            <Array as="points">
              <mxPoint x="3135" y="1130" />
            </Array>
          </mxGeometry>
        </mxCell>
        <mxCell id="1QPHesBKEYhvxCualvM5-218" style="edgeStyle=orthogonalEdgeStyle;rounded=0;orthogonalLoop=1;jettySize=auto;html=1;endArrow=open;endFill=0;dashed=1;dashPattern=12 12;endSize=22;" edge="1" parent="WIyWlLk6GJQsqaUBKTNV-1" source="1QPHesBKEYhvxCualvM5-102" target="1QPHesBKEYhvxCualvM5-5">
          <mxGeometry relative="1" as="geometry">
            <Array as="points">
              <mxPoint x="3650" y="1180" />
              <mxPoint x="3650" y="1475" />
            </Array>
          </mxGeometry>
        </mxCell>
        <mxCell id="1QPHesBKEYhvxCualvM5-251" style="edgeStyle=orthogonalEdgeStyle;rounded=0;orthogonalLoop=1;jettySize=auto;html=1;dashed=1;dashPattern=12 12;endArrow=open;endFill=0;endSize=22;" edge="1" parent="WIyWlLk6GJQsqaUBKTNV-1" source="1QPHesBKEYhvxCualvM5-102" target="1QPHesBKEYhvxCualvM5-15">
          <mxGeometry relative="1" as="geometry">
            <Array as="points">
              <mxPoint x="2680" y="1180" />
              <mxPoint x="2680" y="1040" />
              <mxPoint x="2470" y="1040" />
            </Array>
          </mxGeometry>
        </mxCell>
        <mxCell id="1QPHesBKEYhvxCualvM5-102" value="&lt;b&gt;GoodPanel&lt;/b&gt;" style="swimlane;fontStyle=1;align=center;verticalAlign=top;childLayout=stackLayout;horizontal=1;startSize=26;horizontalStack=0;resizeParent=1;resizeParentMax=0;resizeLast=0;collapsible=1;marginBottom=0;whiteSpace=wrap;html=1;" vertex="1" parent="WIyWlLk6GJQsqaUBKTNV-1">
          <mxGeometry x="3280" y="915" width="270" height="530" as="geometry" />
        </mxCell>
        <mxCell id="1QPHesBKEYhvxCualvM5-103" value="&lt;p style=&quot;margin: 0px 0px 0px 4px;&quot;&gt;+ good : Good&lt;/p&gt;&lt;p style=&quot;margin: 0px 0px 0px 4px;&quot;&gt;- inputPanel : GameObject&lt;/p&gt;&lt;p style=&quot;margin: 0px 0px 0px 4px;&quot;&gt;- outputPanel : GameObject&lt;/p&gt;&lt;p style=&quot;margin: 0px 0px 0px 4px;&quot;&gt;- deleteButton : GameObject&lt;/p&gt;&lt;p style=&quot;margin: 0px 0px 0px 4px;&quot;&gt;- submitButton : GameObject&lt;/p&gt;&lt;p style=&quot;margin: 0px 0px 0px 4px;&quot;&gt;+ AddMode : bool&lt;/p&gt;&lt;p style=&quot;margin: 0px 0px 0px 4px;&quot;&gt;- textName : TMP_Text&lt;/p&gt;&lt;p style=&quot;margin: 0px 0px 0px 4px;&quot;&gt;- textSeller : TMP_Text&lt;/p&gt;&lt;p style=&quot;margin: 0px 0px 0px 4px;&quot;&gt;- textGame : TMP_Text&lt;/p&gt;&lt;p style=&quot;margin: 0px 0px 0px 4px;&quot;&gt;- textDescription : TMP_Text&lt;/p&gt;&lt;p style=&quot;margin: 0px 0px 0px 4px;&quot;&gt;- textPaymentMethod : TMP_Text&lt;/p&gt;&lt;p style=&quot;margin: 0px 0px 0px 4px;&quot;&gt;- textPrice : TMP_Text&lt;/p&gt;&lt;p style=&quot;margin: 0px 0px 0px 4px;&quot;&gt;- textStock : TMP_Text&lt;/p&gt;&lt;p style=&quot;margin: 0px 0px 0px 4px;&quot;&gt;- inputFieldName : TMP_InputField&lt;/p&gt;&lt;p style=&quot;margin: 0px 0px 0px 4px;&quot;&gt;- inputFieldGame : TMP_InputField&lt;/p&gt;&lt;p style=&quot;margin: 0px 0px 0px 4px;&quot;&gt;- inputFieldDescription : TMP_InputField&lt;/p&gt;&lt;p style=&quot;margin: 0px 0px 0px 4px;&quot;&gt;- inputFieldPaymentMethod : TMP_InputField&lt;/p&gt;&lt;p style=&quot;margin: 0px 0px 0px 4px;&quot;&gt;- inputFieldPrice : TMP_InputField&lt;/p&gt;&lt;p style=&quot;margin: 0px 0px 0px 4px;&quot;&gt;- inputFieldStock : TMP_InputField&lt;/p&gt;" style="text;strokeColor=none;fillColor=none;align=left;verticalAlign=top;spacingLeft=4;spacingRight=4;overflow=hidden;rotatable=0;points=[[0,0.5],[1,0.5]];portConstraint=eastwest;whiteSpace=wrap;html=1;" vertex="1" parent="1QPHesBKEYhvxCualvM5-102">
          <mxGeometry y="26" width="270" height="284" as="geometry" />
        </mxCell>
        <mxCell id="1QPHesBKEYhvxCualvM5-104" value="" style="line;strokeWidth=1;fillColor=none;align=left;verticalAlign=middle;spacingTop=-1;spacingLeft=3;spacingRight=3;rotatable=0;labelPosition=right;points=[];portConstraint=eastwest;strokeColor=inherit;" vertex="1" parent="1QPHesBKEYhvxCualvM5-102">
          <mxGeometry y="310" width="270" height="8" as="geometry" />
        </mxCell>
        <mxCell id="1QPHesBKEYhvxCualvM5-105" value="&lt;p style=&quot;margin: 0px 0px 0px 4px;&quot;&gt;+ UpdateTextValues() : void&lt;/p&gt;&lt;p style=&quot;margin: 0px 0px 0px 4px;&quot;&gt;+ UpdateInputFieldsValues() : void&lt;/p&gt;&lt;p style=&quot;margin: 0px 0px 0px 4px;&quot;&gt;+ ToggleEditMode(bool edit) : void&lt;/p&gt;&lt;p style=&quot;margin: 0px 0px 0px 4px;&quot;&gt;+ FormOutputValue() : string&lt;/p&gt;&lt;p style=&quot;margin: 0px 0px 0px 4px;&quot;&gt;+ FormAddOutputValue() : string&lt;/p&gt;&lt;p style=&quot;margin: 0px 0px 0px 4px;&quot;&gt;+ SubmitQuery() : void&lt;/p&gt;&lt;p style=&quot;margin: 0px 0px 0px 4px;&quot;&gt;+ SendModifyQuery() : void&lt;/p&gt;&lt;p style=&quot;margin: 0px 0px 0px 4px;&quot;&gt;+ SendAddQuery() : void&lt;/p&gt;&lt;p style=&quot;margin: 0px 0px 0px 4px;&quot;&gt;+ SendDeleteQuery() : void&lt;/p&gt;&lt;p style=&quot;margin: 0px 0px 0px 4px;&quot;&gt;+ Show() : void&lt;/p&gt;&lt;p style=&quot;margin: 0px 0px 0px 4px;&quot;&gt;+ Toggle(bool show) : void&lt;/p&gt;&lt;p style=&quot;margin: 0px 0px 0px 4px;&quot;&gt;+ Toggle() : void&lt;/p&gt;&lt;p style=&quot;margin: 0px 0px 0px 4px;&quot;&gt;+ Clear() : void&lt;/p&gt;&lt;p style=&quot;margin: 0px 0px 0px 4px;&quot;&gt;+ ToggleInputs(bool mode) : void&lt;/p&gt;" style="text;strokeColor=none;fillColor=none;align=left;verticalAlign=top;spacingLeft=4;spacingRight=4;overflow=hidden;rotatable=0;points=[[0,0.5],[1,0.5]];portConstraint=eastwest;whiteSpace=wrap;html=1;" vertex="1" parent="1QPHesBKEYhvxCualvM5-102">
          <mxGeometry y="318" width="270" height="212" as="geometry" />
        </mxCell>
        <mxCell id="1QPHesBKEYhvxCualvM5-167" style="edgeStyle=orthogonalEdgeStyle;rounded=0;orthogonalLoop=1;jettySize=auto;html=1;endArrow=block;endFill=0;endSize=22;jumpStyle=arc;" edge="1" parent="WIyWlLk6GJQsqaUBKTNV-1" source="1QPHesBKEYhvxCualvM5-106" target="1QPHesBKEYhvxCualvM5-78">
          <mxGeometry relative="1" as="geometry" />
        </mxCell>
        <mxCell id="1QPHesBKEYhvxCualvM5-254" style="edgeStyle=orthogonalEdgeStyle;rounded=0;orthogonalLoop=1;jettySize=auto;html=1;endArrow=open;endFill=0;endSize=22;dashed=1;dashPattern=12 12;" edge="1" parent="WIyWlLk6GJQsqaUBKTNV-1" source="1QPHesBKEYhvxCualvM5-106" target="1QPHesBKEYhvxCualvM5-15">
          <mxGeometry relative="1" as="geometry">
            <Array as="points">
              <mxPoint x="3200" y="-90" />
              <mxPoint x="3200" y="-130" />
              <mxPoint x="2960" y="-130" />
              <mxPoint x="2960" y="40" />
            </Array>
          </mxGeometry>
        </mxCell>
        <mxCell id="1QPHesBKEYhvxCualvM5-106" value="&lt;b&gt;GoodsPanel&lt;/b&gt;" style="swimlane;fontStyle=1;align=center;verticalAlign=top;childLayout=stackLayout;horizontal=1;startSize=26;horizontalStack=0;resizeParent=1;resizeParentMax=0;resizeLast=0;collapsible=1;marginBottom=0;whiteSpace=wrap;html=1;" vertex="1" parent="WIyWlLk6GJQsqaUBKTNV-1">
          <mxGeometry x="3280" y="-114" width="270" height="130" as="geometry" />
        </mxCell>
        <mxCell id="1QPHesBKEYhvxCualvM5-107" value="&lt;p style=&quot;margin: 0px 0px 0px 4px;&quot;&gt;+ gridContainer : GridContainer&lt;br&gt;&lt;/p&gt;" style="text;strokeColor=none;fillColor=none;align=left;verticalAlign=top;spacingLeft=4;spacingRight=4;overflow=hidden;rotatable=0;points=[[0,0.5],[1,0.5]];portConstraint=eastwest;whiteSpace=wrap;html=1;" vertex="1" parent="1QPHesBKEYhvxCualvM5-106">
          <mxGeometry y="26" width="270" height="24" as="geometry" />
        </mxCell>
        <mxCell id="1QPHesBKEYhvxCualvM5-108" value="" style="line;strokeWidth=1;fillColor=none;align=left;verticalAlign=middle;spacingTop=-1;spacingLeft=3;spacingRight=3;rotatable=0;labelPosition=right;points=[];portConstraint=eastwest;strokeColor=inherit;" vertex="1" parent="1QPHesBKEYhvxCualvM5-106">
          <mxGeometry y="50" width="270" height="8" as="geometry" />
        </mxCell>
        <mxCell id="1QPHesBKEYhvxCualvM5-109" value="&lt;p style=&quot;margin: 0px 0px 0px 4px;&quot;&gt;+ Show() : void&lt;/p&gt;&lt;p style=&quot;margin: 0px 0px 0px 4px;&quot;&gt;+ Clear() : void&lt;/p&gt;&lt;p style=&quot;margin: 0px 0px 0px 4px;&quot;&gt;+ Toggle(bool show) : void&lt;/p&gt;&lt;p style=&quot;margin: 0px 0px 0px 4px;&quot;&gt;+ Toggle() : void&lt;/p&gt;" style="text;strokeColor=none;fillColor=none;align=left;verticalAlign=top;spacingLeft=4;spacingRight=4;overflow=hidden;rotatable=0;points=[[0,0.5],[1,0.5]];portConstraint=eastwest;whiteSpace=wrap;html=1;" vertex="1" parent="1QPHesBKEYhvxCualvM5-106">
          <mxGeometry y="58" width="270" height="72" as="geometry" />
        </mxCell>
        <mxCell id="1QPHesBKEYhvxCualvM5-166" style="edgeStyle=orthogonalEdgeStyle;rounded=0;orthogonalLoop=1;jettySize=auto;html=1;endArrow=block;endFill=0;endSize=22;jumpStyle=arc;" edge="1" parent="WIyWlLk6GJQsqaUBKTNV-1" source="1QPHesBKEYhvxCualvM5-110" target="1QPHesBKEYhvxCualvM5-78">
          <mxGeometry relative="1" as="geometry" />
        </mxCell>
        <mxCell id="1QPHesBKEYhvxCualvM5-255" style="edgeStyle=orthogonalEdgeStyle;rounded=0;orthogonalLoop=1;jettySize=auto;html=1;endArrow=open;endFill=0;endSize=22;dashed=1;dashPattern=12 12;" edge="1" parent="WIyWlLk6GJQsqaUBKTNV-1" source="1QPHesBKEYhvxCualvM5-110" target="1QPHesBKEYhvxCualvM5-15">
          <mxGeometry relative="1" as="geometry">
            <Array as="points">
              <mxPoint x="3200" y="-170" />
              <mxPoint x="3200" y="-130" />
              <mxPoint x="2960" y="-130" />
              <mxPoint x="2960" y="40" />
            </Array>
          </mxGeometry>
        </mxCell>
        <mxCell id="1QPHesBKEYhvxCualvM5-110" value="&lt;b&gt;SellerPanel&lt;/b&gt;" style="swimlane;fontStyle=1;align=center;verticalAlign=top;childLayout=stackLayout;horizontal=1;startSize=26;horizontalStack=0;resizeParent=1;resizeParentMax=0;resizeLast=0;collapsible=1;marginBottom=0;whiteSpace=wrap;html=1;" vertex="1" parent="WIyWlLk6GJQsqaUBKTNV-1">
          <mxGeometry x="3280" y="-274" width="270" height="130" as="geometry" />
        </mxCell>
        <mxCell id="1QPHesBKEYhvxCualvM5-111" value="&lt;p style=&quot;margin: 0px 0px 0px 4px;&quot;&gt;+ gridContainer : GridContainer&lt;br&gt;&lt;/p&gt;" style="text;strokeColor=none;fillColor=none;align=left;verticalAlign=top;spacingLeft=4;spacingRight=4;overflow=hidden;rotatable=0;points=[[0,0.5],[1,0.5]];portConstraint=eastwest;whiteSpace=wrap;html=1;" vertex="1" parent="1QPHesBKEYhvxCualvM5-110">
          <mxGeometry y="26" width="270" height="24" as="geometry" />
        </mxCell>
        <mxCell id="1QPHesBKEYhvxCualvM5-112" value="" style="line;strokeWidth=1;fillColor=none;align=left;verticalAlign=middle;spacingTop=-1;spacingLeft=3;spacingRight=3;rotatable=0;labelPosition=right;points=[];portConstraint=eastwest;strokeColor=inherit;" vertex="1" parent="1QPHesBKEYhvxCualvM5-110">
          <mxGeometry y="50" width="270" height="8" as="geometry" />
        </mxCell>
        <mxCell id="1QPHesBKEYhvxCualvM5-113" value="&lt;p style=&quot;margin: 0px 0px 0px 4px;&quot;&gt;+ Show() : void&lt;/p&gt;&lt;p style=&quot;margin: 0px 0px 0px 4px;&quot;&gt;+ Clear() : void&lt;/p&gt;&lt;p style=&quot;margin: 0px 0px 0px 4px;&quot;&gt;+ Toggle(bool show) : void&lt;/p&gt;&lt;p style=&quot;margin: 0px 0px 0px 4px;&quot;&gt;+ Toggle() : void&lt;/p&gt;" style="text;strokeColor=none;fillColor=none;align=left;verticalAlign=top;spacingLeft=4;spacingRight=4;overflow=hidden;rotatable=0;points=[[0,0.5],[1,0.5]];portConstraint=eastwest;whiteSpace=wrap;html=1;" vertex="1" parent="1QPHesBKEYhvxCualvM5-110">
          <mxGeometry y="58" width="270" height="72" as="geometry" />
        </mxCell>
        <mxCell id="1QPHesBKEYhvxCualvM5-114" value="&lt;b&gt;UIScaling&lt;/b&gt;" style="swimlane;fontStyle=1;align=center;verticalAlign=top;childLayout=stackLayout;horizontal=1;startSize=26;horizontalStack=0;resizeParent=1;resizeParentMax=0;resizeLast=0;collapsible=1;marginBottom=0;whiteSpace=wrap;html=1;" vertex="1" parent="WIyWlLk6GJQsqaUBKTNV-1">
          <mxGeometry x="2020" y="373" width="170" height="260" as="geometry" />
        </mxCell>
        <mxCell id="1QPHesBKEYhvxCualvM5-115" value="&lt;p style=&quot;margin: 0px 0px 0px 4px;&quot;&gt;- scales : List&amp;lt;float&amp;gt;&lt;/p&gt;&lt;p style=&quot;margin: 0px 0px 0px 4px;&quot;&gt;- speed : float&lt;/p&gt;&lt;p style=&quot;margin: 0px 0px 0px 4px;&quot;&gt;- randomizedTarget : bool&lt;/p&gt;&lt;p style=&quot;margin: 0px 0px 0px 4px;&quot;&gt;- animateAlways : bool&lt;/p&gt;&lt;p style=&quot;margin: 0px 0px 0px 4px;&quot;&gt;- animating : bool&lt;/p&gt;&lt;p style=&quot;margin: 0px 0px 0px 4px;&quot;&gt;- _targetIndex : int&lt;/p&gt;&lt;p style=&quot;margin: 0px 0px 0px 4px;&quot;&gt;- _dying : bool&lt;/p&gt;" style="text;strokeColor=none;fillColor=none;align=left;verticalAlign=top;spacingLeft=4;spacingRight=4;overflow=hidden;rotatable=0;points=[[0,0.5],[1,0.5]];portConstraint=eastwest;whiteSpace=wrap;html=1;" vertex="1" parent="1QPHesBKEYhvxCualvM5-114">
          <mxGeometry y="26" width="170" height="114" as="geometry" />
        </mxCell>
        <mxCell id="1QPHesBKEYhvxCualvM5-116" value="" style="line;strokeWidth=1;fillColor=none;align=left;verticalAlign=middle;spacingTop=-1;spacingLeft=3;spacingRight=3;rotatable=0;labelPosition=right;points=[];portConstraint=eastwest;strokeColor=inherit;" vertex="1" parent="1QPHesBKEYhvxCualvM5-114">
          <mxGeometry y="140" width="170" height="8" as="geometry" />
        </mxCell>
        <mxCell id="1QPHesBKEYhvxCualvM5-117" value="&lt;p style=&quot;margin: 0px 0px 0px 4px;&quot;&gt;- Start() : void&lt;/p&gt;&lt;p style=&quot;margin: 0px 0px 0px 4px;&quot;&gt;- Update() : void&lt;/p&gt;&lt;p style=&quot;margin: 0px 0px 0px 4px;&quot;&gt;+ StartAnimation() : void&lt;/p&gt;&lt;p style=&quot;margin: 0px 0px 0px 4px;&quot;&gt;+ StopAnimation() : void&lt;/p&gt;&lt;p style=&quot;margin: 0px 0px 0px 4px;&quot;&gt;+ UpdateAnimation() : void&lt;/p&gt;&lt;p style=&quot;margin: 0px 0px 0px 4px;&quot;&gt;- SwitchTargetIndex() : void&lt;/p&gt;&lt;p style=&quot;margin: 0px 0px 0px 4px;&quot;&gt;+ DIE() : void&lt;/p&gt;" style="text;strokeColor=none;fillColor=none;align=left;verticalAlign=top;spacingLeft=4;spacingRight=4;overflow=hidden;rotatable=0;points=[[0,0.5],[1,0.5]];portConstraint=eastwest;whiteSpace=wrap;html=1;" vertex="1" parent="1QPHesBKEYhvxCualvM5-114">
          <mxGeometry y="148" width="170" height="112" as="geometry" />
        </mxCell>
        <mxCell id="1QPHesBKEYhvxCualvM5-193" style="edgeStyle=orthogonalEdgeStyle;rounded=0;orthogonalLoop=1;jettySize=auto;html=1;endArrow=none;endFill=0;startArrow=diamondThin;startFill=1;endSize=22;startSize=22;" edge="1" parent="WIyWlLk6GJQsqaUBKTNV-1" source="1QPHesBKEYhvxCualvM5-118" target="1QPHesBKEYhvxCualvM5-78">
          <mxGeometry relative="1" as="geometry">
            <Array as="points" />
          </mxGeometry>
        </mxCell>
        <mxCell id="1QPHesBKEYhvxCualvM5-118" value="&lt;b&gt;UISliding&lt;/b&gt;" style="swimlane;fontStyle=1;align=center;verticalAlign=top;childLayout=stackLayout;horizontal=1;startSize=26;horizontalStack=0;resizeParent=1;resizeParentMax=0;resizeLast=0;collapsible=1;marginBottom=0;whiteSpace=wrap;html=1;" vertex="1" parent="WIyWlLk6GJQsqaUBKTNV-1">
          <mxGeometry x="2780" y="146" width="200" height="250" as="geometry" />
        </mxCell>
        <mxCell id="1QPHesBKEYhvxCualvM5-119" value="&lt;p style=&quot;margin: 0px 0px 0px 4px;&quot;&gt;- positions : List&amp;lt;RectTransform&amp;gt;&lt;/p&gt;&lt;p style=&quot;margin: 0px 0px 0px 4px;&quot;&gt;- speed : float&lt;/p&gt;&lt;p style=&quot;margin: 0px 0px 0px 4px;&quot;&gt;- randomizedTarget : bool&lt;/p&gt;&lt;p style=&quot;margin: 0px 0px 0px 4px;&quot;&gt;- canBeRetargeted : bool&lt;/p&gt;&lt;p style=&quot;margin: 0px 0px 0px 4px;&quot;&gt;- animateAlways : bool&lt;/p&gt;&lt;p style=&quot;margin: 0px 0px 0px 4px;&quot;&gt;- animating : bool&lt;/p&gt;&lt;p style=&quot;margin: 0px 0px 0px 4px;&quot;&gt;- _targetIndex : int&lt;/p&gt;" style="text;strokeColor=none;fillColor=none;align=left;verticalAlign=top;spacingLeft=4;spacingRight=4;overflow=hidden;rotatable=0;points=[[0,0.5],[1,0.5]];portConstraint=eastwest;whiteSpace=wrap;html=1;" vertex="1" parent="1QPHesBKEYhvxCualvM5-118">
          <mxGeometry y="26" width="200" height="114" as="geometry" />
        </mxCell>
        <mxCell id="1QPHesBKEYhvxCualvM5-120" value="" style="line;strokeWidth=1;fillColor=none;align=left;verticalAlign=middle;spacingTop=-1;spacingLeft=3;spacingRight=3;rotatable=0;labelPosition=right;points=[];portConstraint=eastwest;strokeColor=inherit;" vertex="1" parent="1QPHesBKEYhvxCualvM5-118">
          <mxGeometry y="140" width="200" height="8" as="geometry" />
        </mxCell>
        <mxCell id="1QPHesBKEYhvxCualvM5-121" value="&lt;p style=&quot;margin: 0px 0px 0px 4px;&quot;&gt;- Start() : void&lt;/p&gt;&lt;p style=&quot;margin: 0px 0px 0px 4px;&quot;&gt;- Update() : void&lt;/p&gt;&lt;p style=&quot;margin: 0px 0px 0px 4px;&quot;&gt;+ StartAnimation() : void&lt;/p&gt;&lt;p style=&quot;margin: 0px 0px 0px 4px;&quot;&gt;+ StopAnimation() : void&lt;/p&gt;&lt;p style=&quot;margin: 0px 0px 0px 4px;&quot;&gt;+ UpdateAnimation() : void&lt;/p&gt;&lt;p style=&quot;margin: 0px 0px 0px 4px;&quot;&gt;- SwitchTargetIndex() : void&lt;/p&gt;" style="text;strokeColor=none;fillColor=none;align=left;verticalAlign=top;spacingLeft=4;spacingRight=4;overflow=hidden;rotatable=0;points=[[0,0.5],[1,0.5]];portConstraint=eastwest;whiteSpace=wrap;html=1;" vertex="1" parent="1QPHesBKEYhvxCualvM5-118">
          <mxGeometry y="148" width="200" height="102" as="geometry" />
        </mxCell>
        <mxCell id="1QPHesBKEYhvxCualvM5-122" value="&lt;b&gt;Container&lt;/b&gt;" style="swimlane;fontStyle=1;align=center;verticalAlign=top;childLayout=stackLayout;horizontal=1;startSize=26;horizontalStack=0;resizeParent=1;resizeParentMax=0;resizeLast=0;collapsible=1;marginBottom=0;whiteSpace=wrap;html=1;" vertex="1" parent="WIyWlLk6GJQsqaUBKTNV-1">
          <mxGeometry x="2865" y="-710" width="240" height="90" as="geometry" />
        </mxCell>
        <mxCell id="1QPHesBKEYhvxCualvM5-123" value="&lt;p style=&quot;margin: 0px 0px 0px 4px;&quot;&gt;# children : List&amp;lt;DataStructureElement&amp;gt;&lt;br&gt;&lt;/p&gt;" style="text;strokeColor=none;fillColor=none;align=left;verticalAlign=top;spacingLeft=4;spacingRight=4;overflow=hidden;rotatable=0;points=[[0,0.5],[1,0.5]];portConstraint=eastwest;whiteSpace=wrap;html=1;" vertex="1" parent="1QPHesBKEYhvxCualvM5-122">
          <mxGeometry y="26" width="240" height="24" as="geometry" />
        </mxCell>
        <mxCell id="1QPHesBKEYhvxCualvM5-124" value="" style="line;strokeWidth=1;fillColor=none;align=left;verticalAlign=middle;spacingTop=-1;spacingLeft=3;spacingRight=3;rotatable=0;labelPosition=right;points=[];portConstraint=eastwest;strokeColor=inherit;" vertex="1" parent="1QPHesBKEYhvxCualvM5-122">
          <mxGeometry y="50" width="240" height="8" as="geometry" />
        </mxCell>
        <mxCell id="1QPHesBKEYhvxCualvM5-125" value="&lt;p style=&quot;margin: 0px 0px 0px 4px;&quot;&gt;+ Clear() : void&lt;br&gt;&lt;/p&gt;" style="text;strokeColor=none;fillColor=none;align=left;verticalAlign=top;spacingLeft=4;spacingRight=4;overflow=hidden;rotatable=0;points=[[0,0.5],[1,0.5]];portConstraint=eastwest;whiteSpace=wrap;html=1;" vertex="1" parent="1QPHesBKEYhvxCualvM5-122">
          <mxGeometry y="58" width="240" height="32" as="geometry" />
        </mxCell>
        <mxCell id="1QPHesBKEYhvxCualvM5-174" style="edgeStyle=orthogonalEdgeStyle;rounded=0;orthogonalLoop=1;jettySize=auto;html=1;endSize=22;endArrow=block;endFill=0;" edge="1" parent="WIyWlLk6GJQsqaUBKTNV-1" source="1QPHesBKEYhvxCualvM5-126" target="1QPHesBKEYhvxCualvM5-122">
          <mxGeometry relative="1" as="geometry" />
        </mxCell>
        <mxCell id="1QPHesBKEYhvxCualvM5-199" style="edgeStyle=orthogonalEdgeStyle;rounded=0;orthogonalLoop=1;jettySize=auto;html=1;endArrow=diamondThin;endFill=1;startArrow=none;startFill=0;startSize=22;endSize=22;" edge="1" parent="WIyWlLk6GJQsqaUBKTNV-1" source="1QPHesBKEYhvxCualvM5-126" target="1QPHesBKEYhvxCualvM5-106">
          <mxGeometry relative="1" as="geometry">
            <Array as="points">
              <mxPoint x="3675" y="-980" />
              <mxPoint x="3675" y="-49" />
            </Array>
          </mxGeometry>
        </mxCell>
        <mxCell id="1QPHesBKEYhvxCualvM5-200" style="edgeStyle=orthogonalEdgeStyle;rounded=0;orthogonalLoop=1;jettySize=auto;html=1;endArrow=diamondThin;endFill=1;startArrow=none;startFill=0;startSize=22;endSize=22;" edge="1" parent="WIyWlLk6GJQsqaUBKTNV-1" source="1QPHesBKEYhvxCualvM5-126" target="1QPHesBKEYhvxCualvM5-110">
          <mxGeometry relative="1" as="geometry">
            <Array as="points">
              <mxPoint x="3675" y="-980" />
              <mxPoint x="3675" y="-209" />
            </Array>
          </mxGeometry>
        </mxCell>
        <mxCell id="1QPHesBKEYhvxCualvM5-216" style="edgeStyle=orthogonalEdgeStyle;rounded=0;orthogonalLoop=1;jettySize=auto;html=1;endArrow=none;endFill=0;startArrow=diamondThin;startFill=1;startSize=22;jumpStyle=arc;" edge="1" parent="WIyWlLk6GJQsqaUBKTNV-1" source="1QPHesBKEYhvxCualvM5-126" target="1QPHesBKEYhvxCualvM5-36">
          <mxGeometry relative="1" as="geometry">
            <Array as="points">
              <mxPoint x="2460" y="-980" />
              <mxPoint x="2460" y="-980" />
            </Array>
          </mxGeometry>
        </mxCell>
        <mxCell id="1QPHesBKEYhvxCualvM5-126" value="&lt;b&gt;GridContainer&lt;/b&gt;" style="swimlane;fontStyle=1;align=center;verticalAlign=top;childLayout=stackLayout;horizontal=1;startSize=26;horizontalStack=0;resizeParent=1;resizeParentMax=0;resizeLast=0;collapsible=1;marginBottom=0;whiteSpace=wrap;html=1;" vertex="1" parent="WIyWlLk6GJQsqaUBKTNV-1">
          <mxGeometry x="2865" y="-1050" width="240" height="120" as="geometry" />
        </mxCell>
        <mxCell id="1QPHesBKEYhvxCualvM5-127" value="&lt;p style=&quot;margin: 0px 0px 0px 4px;&quot;&gt;- goodPrefab : GoodElement&lt;/p&gt;&lt;p style=&quot;margin: 0px 0px 0px 4px;&quot;&gt;- goodEditPrefab : GoodElement&lt;/p&gt;" style="text;strokeColor=none;fillColor=none;align=left;verticalAlign=top;spacingLeft=4;spacingRight=4;overflow=hidden;rotatable=0;points=[[0,0.5],[1,0.5]];portConstraint=eastwest;whiteSpace=wrap;html=1;" vertex="1" parent="1QPHesBKEYhvxCualvM5-126">
          <mxGeometry y="26" width="240" height="44" as="geometry" />
        </mxCell>
        <mxCell id="1QPHesBKEYhvxCualvM5-128" value="" style="line;strokeWidth=1;fillColor=none;align=left;verticalAlign=middle;spacingTop=-1;spacingLeft=3;spacingRight=3;rotatable=0;labelPosition=right;points=[];portConstraint=eastwest;strokeColor=inherit;" vertex="1" parent="1QPHesBKEYhvxCualvM5-126">
          <mxGeometry y="70" width="240" height="8" as="geometry" />
        </mxCell>
        <mxCell id="1QPHesBKEYhvxCualvM5-129" value="&lt;p style=&quot;margin: 0px 0px 0px 4px;&quot;&gt;+ ShowGoods(goods :&amp;nbsp;&lt;span style=&quot;background-color: initial;&quot;&gt;string&lt;/span&gt;&lt;span style=&quot;background-color: initial;&quot;&gt;) : void&lt;/span&gt;&lt;/p&gt;&lt;p style=&quot;margin: 0px 0px 0px 4px;&quot;&gt;+ ShowGoodsEdit(goods :&amp;nbsp;&lt;span style=&quot;background-color: initial;&quot;&gt;string&lt;/span&gt;&lt;span style=&quot;background-color: initial;&quot;&gt;) : void&lt;/span&gt;&lt;/p&gt;" style="text;strokeColor=none;fillColor=none;align=left;verticalAlign=top;spacingLeft=4;spacingRight=4;overflow=hidden;rotatable=0;points=[[0,0.5],[1,0.5]];portConstraint=eastwest;whiteSpace=wrap;html=1;" vertex="1" parent="1QPHesBKEYhvxCualvM5-126">
          <mxGeometry y="78" width="240" height="42" as="geometry" />
        </mxCell>
        <mxCell id="1QPHesBKEYhvxCualvM5-175" style="edgeStyle=orthogonalEdgeStyle;rounded=0;orthogonalLoop=1;jettySize=auto;html=1;endSize=22;endArrow=block;endFill=0;" edge="1" parent="WIyWlLk6GJQsqaUBKTNV-1" source="1QPHesBKEYhvxCualvM5-130" target="1QPHesBKEYhvxCualvM5-122">
          <mxGeometry relative="1" as="geometry">
            <Array as="points">
              <mxPoint x="2810" y="-660" />
              <mxPoint x="2810" y="-660" />
            </Array>
          </mxGeometry>
        </mxCell>
        <mxCell id="1QPHesBKEYhvxCualvM5-201" style="edgeStyle=orthogonalEdgeStyle;rounded=0;orthogonalLoop=1;jettySize=auto;html=1;endArrow=none;endFill=0;startArrow=diamondThin;startFill=1;startSize=22;" edge="1" parent="WIyWlLk6GJQsqaUBKTNV-1" source="1QPHesBKEYhvxCualvM5-130" target="1QPHesBKEYhvxCualvM5-86">
          <mxGeometry relative="1" as="geometry">
            <Array as="points">
              <mxPoint x="3060" y="-420" />
              <mxPoint x="3060" y="-420" />
            </Array>
          </mxGeometry>
        </mxCell>
        <mxCell id="1QPHesBKEYhvxCualvM5-202" style="edgeStyle=orthogonalEdgeStyle;rounded=0;orthogonalLoop=1;jettySize=auto;html=1;endArrow=none;endFill=0;endSize=22;startArrow=diamondThin;startFill=1;startSize=22;" edge="1" parent="WIyWlLk6GJQsqaUBKTNV-1" source="1QPHesBKEYhvxCualvM5-130" target="1QPHesBKEYhvxCualvM5-74">
          <mxGeometry relative="1" as="geometry">
            <Array as="points">
              <mxPoint x="2260" y="-1240" />
              <mxPoint x="800" y="-1240" />
              <mxPoint x="800" y="-760" />
            </Array>
          </mxGeometry>
        </mxCell>
        <mxCell id="1QPHesBKEYhvxCualvM5-203" style="edgeStyle=orthogonalEdgeStyle;rounded=0;orthogonalLoop=1;jettySize=auto;html=1;endArrow=none;endFill=0;endSize=22;startArrow=diamondThin;startFill=1;startSize=22;" edge="1" parent="WIyWlLk6GJQsqaUBKTNV-1" source="1QPHesBKEYhvxCualvM5-130" target="1QPHesBKEYhvxCualvM5-70">
          <mxGeometry relative="1" as="geometry">
            <Array as="points">
              <mxPoint x="2260" y="-1240" />
              <mxPoint x="800" y="-1240" />
              <mxPoint x="800" y="-500" />
            </Array>
          </mxGeometry>
        </mxCell>
        <mxCell id="1QPHesBKEYhvxCualvM5-205" style="edgeStyle=orthogonalEdgeStyle;rounded=0;orthogonalLoop=1;jettySize=auto;html=1;endArrow=none;endFill=0;endSize=22;startArrow=diamondThin;startFill=1;startSize=22;" edge="1" parent="WIyWlLk6GJQsqaUBKTNV-1" source="1QPHesBKEYhvxCualvM5-130" target="1QPHesBKEYhvxCualvM5-66">
          <mxGeometry relative="1" as="geometry">
            <Array as="points">
              <mxPoint x="2260" y="-1240" />
              <mxPoint x="800" y="-1240" />
              <mxPoint x="800" y="-420" />
            </Array>
          </mxGeometry>
        </mxCell>
        <mxCell id="1QPHesBKEYhvxCualvM5-206" style="edgeStyle=orthogonalEdgeStyle;rounded=0;orthogonalLoop=1;jettySize=auto;html=1;endArrow=none;endFill=0;endSize=22;startArrow=diamondThin;startFill=1;startSize=22;" edge="1" parent="WIyWlLk6GJQsqaUBKTNV-1" source="1QPHesBKEYhvxCualvM5-130" target="1QPHesBKEYhvxCualvM5-62">
          <mxGeometry relative="1" as="geometry">
            <Array as="points">
              <mxPoint x="2260" y="-1240" />
              <mxPoint x="800" y="-1240" />
              <mxPoint x="800" y="-95" />
            </Array>
          </mxGeometry>
        </mxCell>
        <mxCell id="1QPHesBKEYhvxCualvM5-207" style="edgeStyle=orthogonalEdgeStyle;rounded=0;orthogonalLoop=1;jettySize=auto;html=1;endArrow=none;endFill=0;endSize=22;startArrow=diamondThin;startFill=1;startSize=22;" edge="1" parent="WIyWlLk6GJQsqaUBKTNV-1" source="1QPHesBKEYhvxCualvM5-130" target="1QPHesBKEYhvxCualvM5-58">
          <mxGeometry relative="1" as="geometry">
            <Array as="points">
              <mxPoint x="2260" y="-1240" />
              <mxPoint x="800" y="-1240" />
              <mxPoint x="800" y="30" />
            </Array>
          </mxGeometry>
        </mxCell>
        <mxCell id="1QPHesBKEYhvxCualvM5-208" style="edgeStyle=orthogonalEdgeStyle;rounded=0;orthogonalLoop=1;jettySize=auto;html=1;endArrow=none;endFill=0;endSize=22;startArrow=diamondThin;startFill=1;startSize=22;" edge="1" parent="WIyWlLk6GJQsqaUBKTNV-1" source="1QPHesBKEYhvxCualvM5-130" target="1QPHesBKEYhvxCualvM5-54">
          <mxGeometry relative="1" as="geometry">
            <Array as="points">
              <mxPoint x="2260" y="-1240" />
              <mxPoint x="800" y="-1240" />
              <mxPoint x="800" y="335" />
            </Array>
          </mxGeometry>
        </mxCell>
        <mxCell id="1QPHesBKEYhvxCualvM5-209" style="edgeStyle=orthogonalEdgeStyle;rounded=0;orthogonalLoop=1;jettySize=auto;html=1;endArrow=none;endFill=0;endSize=22;startArrow=diamondThin;startFill=1;startSize=22;" edge="1" parent="WIyWlLk6GJQsqaUBKTNV-1" source="1QPHesBKEYhvxCualvM5-130" target="1QPHesBKEYhvxCualvM5-50">
          <mxGeometry relative="1" as="geometry">
            <Array as="points">
              <mxPoint x="2260" y="-1240" />
              <mxPoint x="800" y="-1240" />
              <mxPoint x="800" y="460" />
            </Array>
          </mxGeometry>
        </mxCell>
        <mxCell id="1QPHesBKEYhvxCualvM5-210" style="edgeStyle=orthogonalEdgeStyle;rounded=0;orthogonalLoop=1;jettySize=auto;html=1;endArrow=none;endFill=0;endSize=22;startArrow=diamondThin;startFill=1;startSize=22;" edge="1" parent="WIyWlLk6GJQsqaUBKTNV-1" source="1QPHesBKEYhvxCualvM5-130" target="1QPHesBKEYhvxCualvM5-28">
          <mxGeometry relative="1" as="geometry">
            <Array as="points">
              <mxPoint x="2260" y="-1240" />
              <mxPoint x="800" y="-1240" />
              <mxPoint x="800" y="630" />
            </Array>
          </mxGeometry>
        </mxCell>
        <mxCell id="1QPHesBKEYhvxCualvM5-211" style="edgeStyle=orthogonalEdgeStyle;rounded=0;orthogonalLoop=1;jettySize=auto;html=1;endArrow=none;endFill=0;endSize=22;startArrow=diamondThin;startFill=1;startSize=22;" edge="1" parent="WIyWlLk6GJQsqaUBKTNV-1" source="1QPHesBKEYhvxCualvM5-130" target="1QPHesBKEYhvxCualvM5-32">
          <mxGeometry relative="1" as="geometry">
            <Array as="points">
              <mxPoint x="2260" y="-1240" />
              <mxPoint x="800" y="-1240" />
              <mxPoint x="800" y="890" />
            </Array>
          </mxGeometry>
        </mxCell>
        <mxCell id="1QPHesBKEYhvxCualvM5-212" style="edgeStyle=orthogonalEdgeStyle;rounded=0;orthogonalLoop=1;jettySize=auto;html=1;endArrow=none;endFill=0;endSize=22;startArrow=diamondThin;startFill=1;startSize=22;" edge="1" parent="WIyWlLk6GJQsqaUBKTNV-1" source="1QPHesBKEYhvxCualvM5-130" target="1QPHesBKEYhvxCualvM5-40">
          <mxGeometry relative="1" as="geometry">
            <Array as="points">
              <mxPoint x="2260" y="-1240" />
              <mxPoint x="800" y="-1240" />
              <mxPoint x="800" y="-1180" />
            </Array>
          </mxGeometry>
        </mxCell>
        <mxCell id="1QPHesBKEYhvxCualvM5-213" style="edgeStyle=orthogonalEdgeStyle;rounded=0;orthogonalLoop=1;jettySize=auto;html=1;endArrow=none;endFill=0;endSize=22;startArrow=diamondThin;startFill=1;startSize=22;" edge="1" parent="WIyWlLk6GJQsqaUBKTNV-1" source="1QPHesBKEYhvxCualvM5-130" target="1QPHesBKEYhvxCualvM5-36">
          <mxGeometry relative="1" as="geometry">
            <Array as="points">
              <mxPoint x="2260" y="-1240" />
              <mxPoint x="800" y="-1240" />
              <mxPoint x="800" y="-935" />
            </Array>
          </mxGeometry>
        </mxCell>
        <mxCell id="1QPHesBKEYhvxCualvM5-130" value="&lt;b&gt;VerticalContainer&lt;/b&gt;" style="swimlane;fontStyle=1;align=center;verticalAlign=top;childLayout=stackLayout;horizontal=1;startSize=26;horizontalStack=0;resizeParent=1;resizeParentMax=0;resizeLast=0;collapsible=1;marginBottom=0;whiteSpace=wrap;html=1;" vertex="1" parent="WIyWlLk6GJQsqaUBKTNV-1">
          <mxGeometry x="2460" y="-760" width="320" height="440" as="geometry" />
        </mxCell>
        <mxCell id="1QPHesBKEYhvxCualvM5-131" value="&lt;p style=&quot;margin: 0px 0px 0px 4px;&quot;&gt;- accountPrefab : AccountElement&lt;/p&gt;&lt;p style=&quot;margin: 0px 0px 0px 4px;&quot;&gt;- accountAddPrefab : AccountAddElement&lt;/p&gt;&lt;p style=&quot;margin: 0px 0px 0px 4px;&quot;&gt;- gamePrefab : GameElement&lt;/p&gt;&lt;p style=&quot;margin: 0px 0px 0px 4px;&quot;&gt;- gameAddPrefab : GameAddElement&lt;/p&gt;&lt;p style=&quot;margin: 0px 0px 0px 4px;&quot;&gt;- pmPrefab : PaymentMethodElement&lt;/p&gt;&lt;p style=&quot;margin: 0px 0px 0px 4px;&quot;&gt;- pmAddPrefab : PaymentAddMethod&lt;/p&gt;&lt;p style=&quot;margin: 0px 0px 0px 4px;&quot;&gt;- sellerPrefab : SellerElement&lt;/p&gt;&lt;p style=&quot;margin: 0px 0px 0px 4px;&quot;&gt;- sellerAddPrefab : SellerAddElement&lt;/p&gt;&lt;p style=&quot;margin: 0px 0px 0px 4px;&quot;&gt;- adminKeyPrefab : AdminKeyElement&lt;/p&gt;&lt;p style=&quot;margin: 0px 0px 0px 4px;&quot;&gt;- adminKeyAddPrefab : AdminKeyAddElement&lt;/p&gt;&lt;p style=&quot;margin: 0px 0px 0px 4px;&quot;&gt;- goodPrefab : GoodElementAP&lt;/p&gt;" style="text;strokeColor=none;fillColor=none;align=left;verticalAlign=top;spacingLeft=4;spacingRight=4;overflow=hidden;rotatable=0;points=[[0,0.5],[1,0.5]];portConstraint=eastwest;whiteSpace=wrap;html=1;" vertex="1" parent="1QPHesBKEYhvxCualvM5-130">
          <mxGeometry y="26" width="320" height="164" as="geometry" />
        </mxCell>
        <mxCell id="1QPHesBKEYhvxCualvM5-132" value="" style="line;strokeWidth=1;fillColor=none;align=left;verticalAlign=middle;spacingTop=-1;spacingLeft=3;spacingRight=3;rotatable=0;labelPosition=right;points=[];portConstraint=eastwest;strokeColor=inherit;" vertex="1" parent="1QPHesBKEYhvxCualvM5-130">
          <mxGeometry y="190" width="320" height="8" as="geometry" />
        </mxCell>
        <mxCell id="1QPHesBKEYhvxCualvM5-133" value="&lt;p style=&quot;margin: 0px 0px 0px 4px;&quot;&gt;+ ShowAccounts(string accounts) : void&lt;/p&gt;&lt;p style=&quot;margin: 0px 0px 0px 4px;&quot;&gt;+ StartAccountsEdit(string accounts) : void&lt;/p&gt;&lt;p style=&quot;margin: 0px 0px 0px 4px;&quot;&gt;+ ContinueAccountsEdit() : void&lt;/p&gt;&lt;p style=&quot;margin: 0px 0px 0px 4px;&quot;&gt;+ ShowGames(string games) : void&lt;/p&gt;&lt;p style=&quot;margin: 0px 0px 0px 4px;&quot;&gt;+ StartGamesEdit(string games) : void&lt;/p&gt;&lt;p style=&quot;margin: 0px 0px 0px 4px;&quot;&gt;+ ContinueGamesEdit() : void&lt;/p&gt;&lt;p style=&quot;margin: 0px 0px 0px 4px;&quot;&gt;+ ShowPaymentMethods(string paymentMethods) : void&lt;/p&gt;&lt;p style=&quot;margin: 0px 0px 0px 4px;&quot;&gt;+ StartPaymentMethodsEdit(string methods) : void&lt;/p&gt;&lt;p style=&quot;margin: 0px 0px 0px 4px;&quot;&gt;+ ContinuePaymentMethodsEdit() : void&lt;/p&gt;&lt;p style=&quot;margin: 0px 0px 0px 4px;&quot;&gt;+ ShowSellers(string sellers) : void&lt;/p&gt;&lt;p style=&quot;margin: 0px 0px 0px 4px;&quot;&gt;+ StartSellersEdit(string accounts) : void&lt;/p&gt;&lt;p style=&quot;margin: 0px 0px 0px 4px;&quot;&gt;+ ContinueSellersEdit() : void&lt;/p&gt;&lt;p style=&quot;margin: 0px 0px 0px 4px;&quot;&gt;+ ShowAdminKey(string adminKeys) : void&lt;/p&gt;&lt;p style=&quot;margin: 0px 0px 0px 4px;&quot;&gt;+ StartAdminKey(string games) : void&lt;/p&gt;&lt;p style=&quot;margin: 0px 0px 0px 4px;&quot;&gt;+ ContinueAdminKeyEdit() : void&lt;/p&gt;&lt;p style=&quot;margin: 0px 0px 0px 4px;&quot;&gt;+ ShowGoods(string goods) : void&lt;/p&gt;" style="text;strokeColor=none;fillColor=none;align=left;verticalAlign=top;spacingLeft=4;spacingRight=4;overflow=hidden;rotatable=0;points=[[0,0.5],[1,0.5]];portConstraint=eastwest;whiteSpace=wrap;html=1;" vertex="1" parent="1QPHesBKEYhvxCualvM5-130">
          <mxGeometry y="198" width="320" height="242" as="geometry" />
        </mxCell>
        <mxCell id="1QPHesBKEYhvxCualvM5-178" style="edgeStyle=orthogonalEdgeStyle;rounded=0;orthogonalLoop=1;jettySize=auto;html=1;endArrow=diamondThin;endFill=1;endSize=22;" edge="1" parent="WIyWlLk6GJQsqaUBKTNV-1" source="1QPHesBKEYhvxCualvM5-134" target="1QPHesBKEYhvxCualvM5-66">
          <mxGeometry relative="1" as="geometry" />
        </mxCell>
        <mxCell id="1QPHesBKEYhvxCualvM5-134" value="&lt;b&gt;Account&lt;/b&gt;" style="swimlane;fontStyle=1;align=center;verticalAlign=top;childLayout=stackLayout;horizontal=1;startSize=26;horizontalStack=0;resizeParent=1;resizeParentMax=0;resizeLast=0;collapsible=1;marginBottom=0;whiteSpace=wrap;html=1;" vertex="1" parent="WIyWlLk6GJQsqaUBKTNV-1">
          <mxGeometry x="851" y="-390" width="390" height="150" as="geometry" />
        </mxCell>
        <mxCell id="1QPHesBKEYhvxCualvM5-135" value="&lt;p style=&quot;margin: 0px 0px 0px 4px;&quot;&gt;+ Login : string&lt;/p&gt;&lt;p style=&quot;margin: 0px 0px 0px 4px;&quot;&gt;+ Password : string&lt;/p&gt;&lt;p style=&quot;margin: 0px 0px 0px 4px;&quot;&gt;+ AdminKey : string&lt;/p&gt;&lt;p style=&quot;margin: 0px 0px 0px 4px;&quot;&gt;+ sv_cheats : bool&lt;/p&gt;&lt;p style=&quot;margin: 0px 0px 0px 4px;&quot;&gt;+ IsSeller : bool&lt;/p&gt;" style="text;strokeColor=none;fillColor=none;align=left;verticalAlign=top;spacingLeft=4;spacingRight=4;overflow=hidden;rotatable=0;points=[[0,0.5],[1,0.5]];portConstraint=eastwest;whiteSpace=wrap;html=1;" vertex="1" parent="1QPHesBKEYhvxCualvM5-134">
          <mxGeometry y="26" width="390" height="84" as="geometry" />
        </mxCell>
        <mxCell id="1QPHesBKEYhvxCualvM5-136" value="" style="line;strokeWidth=1;fillColor=none;align=left;verticalAlign=middle;spacingTop=-1;spacingLeft=3;spacingRight=3;rotatable=0;labelPosition=right;points=[];portConstraint=eastwest;strokeColor=inherit;" vertex="1" parent="1QPHesBKEYhvxCualvM5-134">
          <mxGeometry y="110" width="390" height="8" as="geometry" />
        </mxCell>
        <mxCell id="1QPHesBKEYhvxCualvM5-137" value="&lt;p style=&quot;margin: 0px 0px 0px 4px;&quot;&gt;+ Account(string login, string password, bool sv_cheats) : Account&lt;br&gt;&lt;/p&gt;" style="text;strokeColor=none;fillColor=none;align=left;verticalAlign=top;spacingLeft=4;spacingRight=4;overflow=hidden;rotatable=0;points=[[0,0.5],[1,0.5]];portConstraint=eastwest;whiteSpace=wrap;html=1;" vertex="1" parent="1QPHesBKEYhvxCualvM5-134">
          <mxGeometry y="118" width="390" height="32" as="geometry" />
        </mxCell>
        <mxCell id="1QPHesBKEYhvxCualvM5-186" style="edgeStyle=orthogonalEdgeStyle;rounded=0;orthogonalLoop=1;jettySize=auto;html=1;endArrow=diamondThin;endFill=1;endSize=22;" edge="1" parent="WIyWlLk6GJQsqaUBKTNV-1" source="1QPHesBKEYhvxCualvM5-138" target="1QPHesBKEYhvxCualvM5-74">
          <mxGeometry relative="1" as="geometry">
            <Array as="points">
              <mxPoint x="1300" y="-625" />
              <mxPoint x="1300" y="-695" />
            </Array>
          </mxGeometry>
        </mxCell>
        <mxCell id="1QPHesBKEYhvxCualvM5-187" style="edgeStyle=orthogonalEdgeStyle;rounded=0;orthogonalLoop=1;jettySize=auto;html=1;endArrow=diamondThin;endFill=1;endSize=22;" edge="1" parent="WIyWlLk6GJQsqaUBKTNV-1" source="1QPHesBKEYhvxCualvM5-138" target="1QPHesBKEYhvxCualvM5-70">
          <mxGeometry relative="1" as="geometry">
            <Array as="points">
              <mxPoint x="1300" y="-625" />
              <mxPoint x="1300" y="-530" />
            </Array>
          </mxGeometry>
        </mxCell>
        <mxCell id="1QPHesBKEYhvxCualvM5-138" value="&lt;b&gt;AdminKey&lt;/b&gt;" style="swimlane;fontStyle=1;align=center;verticalAlign=top;childLayout=stackLayout;horizontal=1;startSize=26;horizontalStack=0;resizeParent=1;resizeParentMax=0;resizeLast=0;collapsible=1;marginBottom=0;whiteSpace=wrap;html=1;" vertex="1" parent="WIyWlLk6GJQsqaUBKTNV-1">
          <mxGeometry x="1118" y="-650" width="123" height="50" as="geometry" />
        </mxCell>
        <mxCell id="1QPHesBKEYhvxCualvM5-139" value="&lt;p style=&quot;margin: 0px 0px 0px 4px;&quot;&gt;+ adminKey : string&lt;/p&gt;" style="text;strokeColor=none;fillColor=none;align=left;verticalAlign=top;spacingLeft=4;spacingRight=4;overflow=hidden;rotatable=0;points=[[0,0.5],[1,0.5]];portConstraint=eastwest;whiteSpace=wrap;html=1;" vertex="1" parent="1QPHesBKEYhvxCualvM5-138">
          <mxGeometry y="26" width="123" height="24" as="geometry" />
        </mxCell>
        <mxCell id="1QPHesBKEYhvxCualvM5-190" style="edgeStyle=orthogonalEdgeStyle;rounded=0;orthogonalLoop=1;jettySize=auto;html=1;endArrow=diamondThin;endFill=1;endSize=22;" edge="1" parent="WIyWlLk6GJQsqaUBKTNV-1" source="1QPHesBKEYhvxCualvM5-142" target="1QPHesBKEYhvxCualvM5-28">
          <mxGeometry relative="1" as="geometry" />
        </mxCell>
        <mxCell id="1QPHesBKEYhvxCualvM5-191" style="edgeStyle=orthogonalEdgeStyle;rounded=0;orthogonalLoop=1;jettySize=auto;html=1;endArrow=diamondThin;endFill=1;endSize=22;" edge="1" parent="WIyWlLk6GJQsqaUBKTNV-1" source="1QPHesBKEYhvxCualvM5-142" target="1QPHesBKEYhvxCualvM5-32">
          <mxGeometry relative="1" as="geometry" />
        </mxCell>
        <mxCell id="1QPHesBKEYhvxCualvM5-142" value="&lt;b&gt;Game&lt;/b&gt;" style="swimlane;fontStyle=1;align=center;verticalAlign=top;childLayout=stackLayout;horizontal=1;startSize=26;horizontalStack=0;resizeParent=1;resizeParentMax=0;resizeLast=0;collapsible=1;marginBottom=0;whiteSpace=wrap;html=1;" vertex="1" parent="WIyWlLk6GJQsqaUBKTNV-1">
          <mxGeometry x="1140" y="705" width="130" height="50" as="geometry" />
        </mxCell>
        <mxCell id="1QPHesBKEYhvxCualvM5-143" value="&lt;p style=&quot;margin: 0px 0px 0px 4px;&quot;&gt;+ gameName : string&lt;/p&gt;" style="text;strokeColor=none;fillColor=none;align=left;verticalAlign=top;spacingLeft=4;spacingRight=4;overflow=hidden;rotatable=0;points=[[0,0.5],[1,0.5]];portConstraint=eastwest;whiteSpace=wrap;html=1;" vertex="1" parent="1QPHesBKEYhvxCualvM5-142">
          <mxGeometry y="26" width="130" height="24" as="geometry" />
        </mxCell>
        <mxCell id="1QPHesBKEYhvxCualvM5-182" style="edgeStyle=orthogonalEdgeStyle;rounded=0;orthogonalLoop=1;jettySize=auto;html=1;endArrow=diamondThin;endFill=1;endSize=22;" edge="1" parent="WIyWlLk6GJQsqaUBKTNV-1" source="1QPHesBKEYhvxCualvM5-144" target="1QPHesBKEYhvxCualvM5-36">
          <mxGeometry relative="1" as="geometry">
            <Array as="points">
              <mxPoint x="1220" y="-1050" />
              <mxPoint x="1220" y="-970" />
            </Array>
          </mxGeometry>
        </mxCell>
        <mxCell id="1QPHesBKEYhvxCualvM5-144" value="Good" style="swimlane;fontStyle=1;align=center;verticalAlign=top;childLayout=stackLayout;horizontal=1;startSize=26;horizontalStack=0;resizeParent=1;resizeParentMax=0;resizeLast=0;collapsible=1;marginBottom=0;whiteSpace=wrap;html=1;" vertex="1" parent="WIyWlLk6GJQsqaUBKTNV-1">
          <mxGeometry x="1000" y="-1120" width="150" height="140" as="geometry" />
        </mxCell>
        <mxCell id="1QPHesBKEYhvxCualvM5-145" value="&lt;p style=&quot;margin: 0px 0px 0px 4px;&quot;&gt;+ goodName : string&lt;/p&gt;&lt;p style=&quot;margin: 0px 0px 0px 4px;&quot;&gt;+ sellerName : string&lt;/p&gt;&lt;p style=&quot;margin: 0px 0px 0px 4px;&quot;&gt;+ gameName : string&lt;/p&gt;&lt;p style=&quot;margin: 0px 0px 0px 4px;&quot;&gt;+ description : string&lt;/p&gt;&lt;p style=&quot;margin: 0px 0px 0px 4px;&quot;&gt;+ paymentMethod : string&lt;/p&gt;&lt;p style=&quot;margin: 0px 0px 0px 4px;&quot;&gt;+ price : int&lt;/p&gt;&lt;p style=&quot;margin: 0px 0px 0px 4px;&quot;&gt;+ stock : int&lt;/p&gt;" style="text;strokeColor=none;fillColor=none;align=left;verticalAlign=top;spacingLeft=4;spacingRight=4;overflow=hidden;rotatable=0;points=[[0,0.5],[1,0.5]];portConstraint=eastwest;whiteSpace=wrap;html=1;" vertex="1" parent="1QPHesBKEYhvxCualvM5-144">
          <mxGeometry y="26" width="150" height="114" as="geometry" />
        </mxCell>
        <mxCell id="1QPHesBKEYhvxCualvM5-188" style="edgeStyle=orthogonalEdgeStyle;rounded=0;orthogonalLoop=1;jettySize=auto;html=1;endArrow=diamondThin;endFill=1;endSize=22;" edge="1" parent="WIyWlLk6GJQsqaUBKTNV-1" source="1QPHesBKEYhvxCualvM5-150" target="1QPHesBKEYhvxCualvM5-58">
          <mxGeometry relative="1" as="geometry" />
        </mxCell>
        <mxCell id="1QPHesBKEYhvxCualvM5-150" value="&lt;b&gt;Seller&lt;/b&gt;" style="swimlane;fontStyle=1;align=center;verticalAlign=top;childLayout=stackLayout;horizontal=1;startSize=26;horizontalStack=0;resizeParent=1;resizeParentMax=0;resizeLast=0;collapsible=1;marginBottom=0;whiteSpace=wrap;html=1;" vertex="1" parent="WIyWlLk6GJQsqaUBKTNV-1">
          <mxGeometry x="1165" y="80" width="100" height="80" as="geometry" />
        </mxCell>
        <mxCell id="1QPHesBKEYhvxCualvM5-151" value="&lt;p style=&quot;margin: 0px 0px 0px 4px;&quot;&gt;+ Name : string&lt;/p&gt;&lt;p style=&quot;margin: 0px 0px 0px 4px;&quot;&gt;+ Login : string&lt;/p&gt;&lt;p style=&quot;margin: 0px 0px 0px 4px;&quot;&gt;+ Rate : int&lt;/p&gt;" style="text;strokeColor=none;fillColor=none;align=left;verticalAlign=top;spacingLeft=4;spacingRight=4;overflow=hidden;rotatable=0;points=[[0,0.5],[1,0.5]];portConstraint=eastwest;whiteSpace=wrap;html=1;" vertex="1" parent="1QPHesBKEYhvxCualvM5-150">
          <mxGeometry y="26" width="100" height="54" as="geometry" />
        </mxCell>
        <mxCell id="1QPHesBKEYhvxCualvM5-155" style="edgeStyle=orthogonalEdgeStyle;rounded=0;orthogonalLoop=1;jettySize=auto;html=1;endArrow=block;endFill=0;endSize=22;jumpStyle=arc;jumpSize=10;" edge="1" parent="WIyWlLk6GJQsqaUBKTNV-1" source="1QPHesBKEYhvxCualvM5-63" target="1QPHesBKEYhvxCualvM5-24">
          <mxGeometry relative="1" as="geometry" />
        </mxCell>
        <mxCell id="1QPHesBKEYhvxCualvM5-159" style="edgeStyle=orthogonalEdgeStyle;rounded=0;orthogonalLoop=1;jettySize=auto;html=1;endArrow=block;endFill=0;endSize=22;jumpStyle=arc;jumpSize=10;" edge="1" parent="WIyWlLk6GJQsqaUBKTNV-1" source="1QPHesBKEYhvxCualvM5-41" target="1QPHesBKEYhvxCualvM5-24">
          <mxGeometry relative="1" as="geometry" />
        </mxCell>
        <mxCell id="1QPHesBKEYhvxCualvM5-163" style="edgeStyle=orthogonalEdgeStyle;rounded=0;orthogonalLoop=1;jettySize=auto;html=1;endArrow=block;endFill=0;endSize=22;jumpStyle=arc;" edge="1" parent="WIyWlLk6GJQsqaUBKTNV-1" source="1QPHesBKEYhvxCualvM5-33" target="1QPHesBKEYhvxCualvM5-24">
          <mxGeometry relative="1" as="geometry" />
        </mxCell>
        <mxCell id="1QPHesBKEYhvxCualvM5-179" value="1..1" style="text;html=1;align=center;verticalAlign=middle;resizable=0;points=[];autosize=1;strokeColor=none;fillColor=none;" vertex="1" parent="WIyWlLk6GJQsqaUBKTNV-1">
          <mxGeometry x="1320" y="-312" width="40" height="30" as="geometry" />
        </mxCell>
        <mxCell id="1QPHesBKEYhvxCualvM5-180" value="1..1" style="text;html=1;align=center;verticalAlign=middle;resizable=0;points=[];autosize=1;strokeColor=none;fillColor=none;" vertex="1" parent="WIyWlLk6GJQsqaUBKTNV-1">
          <mxGeometry x="1241" y="-342" width="40" height="30" as="geometry" />
        </mxCell>
        <mxCell id="1QPHesBKEYhvxCualvM5-181" style="edgeStyle=orthogonalEdgeStyle;rounded=0;orthogonalLoop=1;jettySize=auto;html=1;endArrow=diamondThin;endFill=1;endSize=22;" edge="1" parent="WIyWlLk6GJQsqaUBKTNV-1" source="1QPHesBKEYhvxCualvM5-144" target="1QPHesBKEYhvxCualvM5-40">
          <mxGeometry relative="1" as="geometry">
            <Array as="points">
              <mxPoint x="1220" y="-1050" />
              <mxPoint x="1220" y="-1140" />
            </Array>
          </mxGeometry>
        </mxCell>
        <mxCell id="1QPHesBKEYhvxCualvM5-185" style="edgeStyle=orthogonalEdgeStyle;rounded=0;orthogonalLoop=1;jettySize=auto;html=1;endArrow=diamondThin;endFill=1;endSize=22;" edge="1" parent="WIyWlLk6GJQsqaUBKTNV-1" source="1QPHesBKEYhvxCualvM5-183" target="1QPHesBKEYhvxCualvM5-50">
          <mxGeometry relative="1" as="geometry">
            <mxPoint x="1369" y="504" as="targetPoint" />
          </mxGeometry>
        </mxCell>
        <mxCell id="1QPHesBKEYhvxCualvM5-183" value="PaymentMethod" style="swimlane;fontStyle=1;align=center;verticalAlign=top;childLayout=stackLayout;horizontal=1;startSize=26;horizontalStack=0;resizeParent=1;resizeParentMax=0;resizeLast=0;collapsible=1;marginBottom=0;whiteSpace=wrap;html=1;" vertex="1" parent="WIyWlLk6GJQsqaUBKTNV-1">
          <mxGeometry x="1118" y="479" width="150" height="50" as="geometry" />
        </mxCell>
        <mxCell id="1QPHesBKEYhvxCualvM5-184" value="&lt;p style=&quot;margin: 0px 0px 0px 4px;&quot;&gt;+ methodName : string&lt;/p&gt;" style="text;strokeColor=none;fillColor=none;align=left;verticalAlign=top;spacingLeft=4;spacingRight=4;overflow=hidden;rotatable=0;points=[[0,0.5],[1,0.5]];portConstraint=eastwest;whiteSpace=wrap;html=1;" vertex="1" parent="1QPHesBKEYhvxCualvM5-183">
          <mxGeometry y="26" width="150" height="24" as="geometry" />
        </mxCell>
        <mxCell id="1QPHesBKEYhvxCualvM5-194" value="1..1" style="text;html=1;align=center;verticalAlign=middle;resizable=0;points=[];autosize=1;strokeColor=none;fillColor=none;" vertex="1" parent="WIyWlLk6GJQsqaUBKTNV-1">
          <mxGeometry x="2980" y="274" width="40" height="30" as="geometry" />
        </mxCell>
        <mxCell id="1QPHesBKEYhvxCualvM5-195" value="1..1" style="text;html=1;align=center;verticalAlign=middle;resizable=0;points=[];autosize=1;strokeColor=none;fillColor=none;" vertex="1" parent="WIyWlLk6GJQsqaUBKTNV-1">
          <mxGeometry x="3010" y="244" width="40" height="30" as="geometry" />
        </mxCell>
        <mxCell id="1QPHesBKEYhvxCualvM5-197" value="1..1" style="text;html=1;align=center;verticalAlign=middle;resizable=0;points=[];autosize=1;strokeColor=none;fillColor=none;" vertex="1" parent="WIyWlLk6GJQsqaUBKTNV-1">
          <mxGeometry x="1950" y="500" width="40" height="30" as="geometry" />
        </mxCell>
        <mxCell id="1QPHesBKEYhvxCualvM5-198" value="1..1" style="text;html=1;align=center;verticalAlign=middle;resizable=0;points=[];autosize=1;strokeColor=none;fillColor=none;" vertex="1" parent="WIyWlLk6GJQsqaUBKTNV-1">
          <mxGeometry x="1980" y="470" width="40" height="30" as="geometry" />
        </mxCell>
        <mxCell id="1QPHesBKEYhvxCualvM5-214" style="edgeStyle=orthogonalEdgeStyle;rounded=0;orthogonalLoop=1;jettySize=auto;html=1;endArrow=none;endFill=0;endSize=22;startArrow=diamondThin;startFill=1;startSize=22;" edge="1" parent="WIyWlLk6GJQsqaUBKTNV-1" source="1QPHesBKEYhvxCualvM5-130" target="1QPHesBKEYhvxCualvM5-45">
          <mxGeometry relative="1" as="geometry">
            <Array as="points">
              <mxPoint x="2260" y="-1240" />
              <mxPoint x="800" y="-1240" />
              <mxPoint x="800" y="1020" />
            </Array>
          </mxGeometry>
        </mxCell>
        <mxCell id="1QPHesBKEYhvxCualvM5-234" value="1..1" style="text;html=1;align=center;verticalAlign=middle;resizable=0;points=[];autosize=1;strokeColor=none;fillColor=none;" vertex="1" parent="WIyWlLk6GJQsqaUBKTNV-1">
          <mxGeometry x="1260" y="500" width="40" height="30" as="geometry" />
        </mxCell>
        <mxCell id="1QPHesBKEYhvxCualvM5-235" value="1..1" style="text;html=1;align=center;verticalAlign=middle;resizable=0;points=[];autosize=1;strokeColor=none;fillColor=none;" vertex="1" parent="WIyWlLk6GJQsqaUBKTNV-1">
          <mxGeometry x="1320" y="479" width="40" height="30" as="geometry" />
        </mxCell>
        <mxCell id="1QPHesBKEYhvxCualvM5-236" value="1..1" style="text;html=1;align=center;verticalAlign=middle;resizable=0;points=[];autosize=1;strokeColor=none;fillColor=none;" vertex="1" parent="WIyWlLk6GJQsqaUBKTNV-1">
          <mxGeometry x="1260" y="116" width="40" height="30" as="geometry" />
        </mxCell>
        <mxCell id="1QPHesBKEYhvxCualvM5-237" value="1..1" style="text;html=1;align=center;verticalAlign=middle;resizable=0;points=[];autosize=1;strokeColor=none;fillColor=none;" vertex="1" parent="WIyWlLk6GJQsqaUBKTNV-1">
          <mxGeometry x="1320" y="86" width="40" height="30" as="geometry" />
        </mxCell>
        <mxCell id="1QPHesBKEYhvxCualvM5-238" value="1..1" style="text;html=1;align=center;verticalAlign=middle;resizable=0;points=[];autosize=1;strokeColor=none;fillColor=none;" vertex="1" parent="WIyWlLk6GJQsqaUBKTNV-1">
          <mxGeometry x="1320" y="660" width="40" height="30" as="geometry" />
        </mxCell>
        <mxCell id="1QPHesBKEYhvxCualvM5-239" value="1..1" style="text;html=1;align=center;verticalAlign=middle;resizable=0;points=[];autosize=1;strokeColor=none;fillColor=none;" vertex="1" parent="WIyWlLk6GJQsqaUBKTNV-1">
          <mxGeometry x="1320" y="830" width="40" height="30" as="geometry" />
        </mxCell>
        <mxCell id="1QPHesBKEYhvxCualvM5-240" value="1..1" style="text;html=1;align=center;verticalAlign=middle;resizable=0;points=[];autosize=1;strokeColor=none;fillColor=none;" vertex="1" parent="WIyWlLk6GJQsqaUBKTNV-1">
          <mxGeometry x="1260" y="725" width="40" height="30" as="geometry" />
        </mxCell>
        <mxCell id="1QPHesBKEYhvxCualvM5-242" value="1..1" style="text;html=1;align=center;verticalAlign=middle;resizable=0;points=[];autosize=1;strokeColor=none;fillColor=none;" vertex="1" parent="WIyWlLk6GJQsqaUBKTNV-1">
          <mxGeometry x="1241" y="-630" width="40" height="30" as="geometry" />
        </mxCell>
        <mxCell id="1QPHesBKEYhvxCualvM5-243" value="1..1" style="text;html=1;align=center;verticalAlign=middle;resizable=0;points=[];autosize=1;strokeColor=none;fillColor=none;" vertex="1" parent="WIyWlLk6GJQsqaUBKTNV-1">
          <mxGeometry x="1320" y="-690" width="40" height="30" as="geometry" />
        </mxCell>
        <mxCell id="1QPHesBKEYhvxCualvM5-244" value="1..1" style="text;html=1;align=center;verticalAlign=middle;resizable=0;points=[];autosize=1;strokeColor=none;fillColor=none;" vertex="1" parent="WIyWlLk6GJQsqaUBKTNV-1">
          <mxGeometry x="1320" y="-530" width="40" height="30" as="geometry" />
        </mxCell>
        <mxCell id="1QPHesBKEYhvxCualvM5-245" value="1..1" style="text;html=1;align=center;verticalAlign=middle;resizable=0;points=[];autosize=1;strokeColor=none;fillColor=none;" vertex="1" parent="WIyWlLk6GJQsqaUBKTNV-1">
          <mxGeometry x="1320" y="-970" width="40" height="30" as="geometry" />
        </mxCell>
        <mxCell id="1QPHesBKEYhvxCualvM5-246" value="1..1" style="text;html=1;align=center;verticalAlign=middle;resizable=0;points=[];autosize=1;strokeColor=none;fillColor=none;" vertex="1" parent="WIyWlLk6GJQsqaUBKTNV-1">
          <mxGeometry x="1150" y="-1050" width="40" height="30" as="geometry" />
        </mxCell>
        <mxCell id="1QPHesBKEYhvxCualvM5-247" value="1..1" style="text;html=1;align=center;verticalAlign=middle;resizable=0;points=[];autosize=1;strokeColor=none;fillColor=none;" vertex="1" parent="WIyWlLk6GJQsqaUBKTNV-1">
          <mxGeometry x="1320" y="-1140" width="40" height="30" as="geometry" />
        </mxCell>
        <mxCell id="1QPHesBKEYhvxCualvM5-256" value="1..1" style="text;html=1;align=center;verticalAlign=middle;resizable=0;points=[];autosize=1;strokeColor=none;fillColor=none;" vertex="1" parent="WIyWlLk6GJQsqaUBKTNV-1">
          <mxGeometry x="3105" y="-980" width="40" height="30" as="geometry" />
        </mxCell>
        <mxCell id="1QPHesBKEYhvxCualvM5-257" value="1..1" style="text;html=1;align=center;verticalAlign=middle;resizable=0;points=[];autosize=1;strokeColor=none;fillColor=none;" vertex="1" parent="WIyWlLk6GJQsqaUBKTNV-1">
          <mxGeometry x="3560" y="-240" width="40" height="30" as="geometry" />
        </mxCell>
        <mxCell id="1QPHesBKEYhvxCualvM5-258" value="1..1" style="text;html=1;align=center;verticalAlign=middle;resizable=0;points=[];autosize=1;strokeColor=none;fillColor=none;" vertex="1" parent="WIyWlLk6GJQsqaUBKTNV-1">
          <mxGeometry x="3560" y="-80" width="40" height="30" as="geometry" />
        </mxCell>
        <mxCell id="1QPHesBKEYhvxCualvM5-259" value="1..1" style="text;html=1;align=center;verticalAlign=middle;resizable=0;points=[];autosize=1;strokeColor=none;fillColor=none;" vertex="1" parent="WIyWlLk6GJQsqaUBKTNV-1">
          <mxGeometry x="2825" y="-1010" width="40" height="30" as="geometry" />
        </mxCell>
        <mxCell id="1QPHesBKEYhvxCualvM5-260" value="0..*" style="text;html=1;align=center;verticalAlign=middle;resizable=0;points=[];autosize=1;strokeColor=none;fillColor=none;" vertex="1" parent="WIyWlLk6GJQsqaUBKTNV-1">
          <mxGeometry x="1710" y="-980" width="40" height="30" as="geometry" />
        </mxCell>
        <mxCell id="1QPHesBKEYhvxCualvM5-261" value="0..*" style="text;html=1;align=center;verticalAlign=middle;resizable=0;points=[];autosize=1;strokeColor=none;fillColor=none;" vertex="1" parent="WIyWlLk6GJQsqaUBKTNV-1">
          <mxGeometry x="1320" y="-930" width="40" height="30" as="geometry" />
        </mxCell>
        <mxCell id="1QPHesBKEYhvxCualvM5-262" value="0..*" style="text;html=1;align=center;verticalAlign=middle;resizable=0;points=[];autosize=1;strokeColor=none;fillColor=none;" vertex="1" parent="WIyWlLk6GJQsqaUBKTNV-1">
          <mxGeometry x="1320" y="-1210" width="40" height="30" as="geometry" />
        </mxCell>
        <mxCell id="1QPHesBKEYhvxCualvM5-264" value="0..*" style="text;html=1;align=center;verticalAlign=middle;resizable=0;points=[];autosize=1;strokeColor=none;fillColor=none;" vertex="1" parent="WIyWlLk6GJQsqaUBKTNV-1">
          <mxGeometry x="1320" y="-760" width="40" height="30" as="geometry" />
        </mxCell>
        <mxCell id="1QPHesBKEYhvxCualvM5-265" value="0..*" style="text;html=1;align=center;verticalAlign=middle;resizable=0;points=[];autosize=1;strokeColor=none;fillColor=none;" vertex="1" parent="WIyWlLk6GJQsqaUBKTNV-1">
          <mxGeometry x="1320" y="-500" width="40" height="30" as="geometry" />
        </mxCell>
        <mxCell id="1QPHesBKEYhvxCualvM5-266" value="0..*" style="text;html=1;align=center;verticalAlign=middle;resizable=0;points=[];autosize=1;strokeColor=none;fillColor=none;" vertex="1" parent="WIyWlLk6GJQsqaUBKTNV-1">
          <mxGeometry x="1320" y="-420" width="40" height="30" as="geometry" />
        </mxCell>
        <mxCell id="1QPHesBKEYhvxCualvM5-267" value="0..*" style="text;html=1;align=center;verticalAlign=middle;resizable=0;points=[];autosize=1;strokeColor=none;fillColor=none;" vertex="1" parent="WIyWlLk6GJQsqaUBKTNV-1">
          <mxGeometry x="1320" y="-100" width="40" height="30" as="geometry" />
        </mxCell>
        <mxCell id="1QPHesBKEYhvxCualvM5-268" value="0..*" style="text;html=1;align=center;verticalAlign=middle;resizable=0;points=[];autosize=1;strokeColor=none;fillColor=none;" vertex="1" parent="WIyWlLk6GJQsqaUBKTNV-1">
          <mxGeometry x="1320" y="26" width="40" height="30" as="geometry" />
        </mxCell>
        <mxCell id="1QPHesBKEYhvxCualvM5-269" value="0..*" style="text;html=1;align=center;verticalAlign=middle;resizable=0;points=[];autosize=1;strokeColor=none;fillColor=none;" vertex="1" parent="WIyWlLk6GJQsqaUBKTNV-1">
          <mxGeometry x="1320" y="340" width="40" height="30" as="geometry" />
        </mxCell>
        <mxCell id="1QPHesBKEYhvxCualvM5-270" value="0..*" style="text;html=1;align=center;verticalAlign=middle;resizable=0;points=[];autosize=1;strokeColor=none;fillColor=none;" vertex="1" parent="WIyWlLk6GJQsqaUBKTNV-1">
          <mxGeometry x="1320" y="430" width="40" height="30" as="geometry" />
        </mxCell>
        <mxCell id="1QPHesBKEYhvxCualvM5-271" value="0..*" style="text;html=1;align=center;verticalAlign=middle;resizable=0;points=[];autosize=1;strokeColor=none;fillColor=none;" vertex="1" parent="WIyWlLk6GJQsqaUBKTNV-1">
          <mxGeometry x="1320" y="600" width="40" height="30" as="geometry" />
        </mxCell>
        <mxCell id="1QPHesBKEYhvxCualvM5-272" value="0..*" style="text;html=1;align=center;verticalAlign=middle;resizable=0;points=[];autosize=1;strokeColor=none;fillColor=none;" vertex="1" parent="WIyWlLk6GJQsqaUBKTNV-1">
          <mxGeometry x="1320" y="890" width="40" height="30" as="geometry" />
        </mxCell>
        <mxCell id="1QPHesBKEYhvxCualvM5-273" value="0..*" style="text;html=1;align=center;verticalAlign=middle;resizable=0;points=[];autosize=1;strokeColor=none;fillColor=none;" vertex="1" parent="WIyWlLk6GJQsqaUBKTNV-1">
          <mxGeometry x="1320" y="1020" width="40" height="30" as="geometry" />
        </mxCell>
        <mxCell id="1QPHesBKEYhvxCualvM5-274" value="1..1" style="text;html=1;align=center;verticalAlign=middle;resizable=0;points=[];autosize=1;strokeColor=none;fillColor=none;" vertex="1" parent="WIyWlLk6GJQsqaUBKTNV-1">
          <mxGeometry x="2780" y="-462" width="40" height="30" as="geometry" />
        </mxCell>
        <mxCell id="1QPHesBKEYhvxCualvM5-275" value="1..1" style="text;html=1;align=center;verticalAlign=middle;resizable=0;points=[];autosize=1;strokeColor=none;fillColor=none;" vertex="1" parent="WIyWlLk6GJQsqaUBKTNV-1">
          <mxGeometry x="3240" y="-450" width="40" height="30" as="geometry" />
        </mxCell>
        <mxCell id="1QPHesBKEYhvxCualvM5-276" value="1..1" style="text;html=1;align=center;verticalAlign=middle;resizable=0;points=[];autosize=1;strokeColor=none;fillColor=none;" vertex="1" parent="WIyWlLk6GJQsqaUBKTNV-1">
          <mxGeometry x="2420" y="-570" width="40" height="30" as="geometry" />
        </mxCell>
      </root>
    </mxGraphModel>
  </diagram>
</mxfile>
